<svg width="16" height="16" viewBox="0 0 16 16" fill="none" xmlns="http://www.w3.org/2000/svg">
<path d="M13.334 11.3333H14.6673V12.6666H1.33398V11.3333H2.66732V6.66659C2.66732 5.2521 3.22922 3.89554 4.22941 2.89535C5.22961 1.89516 6.58616 1.33325 8.00065 1.33325C9.41514 1.33325 10.7717 1.89516 11.7719 2.89535C12.7721 3.89554 13.334 5.2521 13.334 6.66659V11.3333ZM12.0007 11.3333V6.66659C12.0007 5.60572 11.5792 4.5883 10.8291 3.83816C10.0789 3.08801 9.06152 2.66659 8.00065 2.66659C6.93979 2.66659 5.92237 3.08801 5.17222 3.83816C4.42208 4.5883 4.00065 5.60572 4.00065 6.66659V11.3333H12.0007ZM6.00065 13.9999H10.0007V15.3333H6.00065V13.9999Z" fill="#0F0F0F"/>
</svg>
