<svg width="30" height="28" viewBox="0 0 30 28" fill="none" xmlns="http://www.w3.org/2000/svg">
<path d="M26.9987 24.6667H29.6654V27.3334H0.332031V24.6667H2.9987V2.00008C2.9987 1.64646 3.13917 1.30732 3.38922 1.05727C3.63927 0.807224 3.97841 0.666748 4.33203 0.666748H25.6654C26.019 0.666748 26.3581 0.807224 26.6082 1.05727C26.8582 1.30732 26.9987 1.64646 26.9987 2.00008V24.6667ZM24.332 24.6667V3.33341H5.66536V24.6667H24.332ZM9.66536 12.6667H13.6654V15.3334H9.66536V12.6667ZM9.66536 7.33341H13.6654V10.0001H9.66536V7.33341ZM9.66536 18.0001H13.6654V20.6667H9.66536V18.0001ZM16.332 18.0001H20.332V20.6667H16.332V18.0001ZM16.332 12.6667H20.332V15.3334H16.332V12.6667ZM16.332 7.33341H20.332V10.0001H16.332V7.33341Z" fill="#767676"/>
</svg>
