<svg width="438" height="438" viewBox="0 0 438 438" fill="none" xmlns="http://www.w3.org/2000/svg">
<circle cx="219" cy="219" r="219" fill="#F5F5F5"/>
<path d="M85.6367 272.854C85.6367 277.223 82.0949 280.767 77.7252 280.767C73.3554 280.767 69.8144 277.223 69.8144 272.854C69.8144 268.484 73.3554 264.942 77.7252 264.942C82.0949 264.942 85.6367 268.484 85.6367 272.854Z" fill="white"/>
<path d="M107.273 272.854C107.273 277.223 103.732 280.767 99.3619 280.767C94.9929 280.767 91.4511 277.223 91.4511 272.854C91.4511 268.484 94.9929 264.942 99.3619 264.942C103.732 264.942 107.273 268.484 107.273 272.854Z" fill="white"/>
<path d="M128.912 272.854C128.912 277.223 125.37 280.767 121.001 280.767C116.632 280.767 113.09 277.223 113.09 272.854C113.09 268.484 116.632 264.942 121.001 264.942C125.37 264.942 128.912 268.484 128.912 272.854Z" fill="white"/>
<path d="M85.6367 295.694C85.6367 300.063 82.0949 303.606 77.7252 303.606C73.3554 303.606 69.8144 300.063 69.8144 295.694C69.8144 291.324 73.3554 287.782 77.7252 287.782C82.0949 287.782 85.6367 291.324 85.6367 295.694Z" fill="white"/>
<path d="M107.273 295.693C107.273 300.062 103.732 303.605 99.3619 303.605C94.9929 303.605 91.4511 300.062 91.4511 295.693C91.4511 291.323 94.9929 287.781 99.3619 287.781C103.732 287.781 107.273 291.323 107.273 295.693Z" fill="white"/>
<path d="M128.912 295.694C128.912 300.063 125.37 303.606 121.001 303.606C116.632 303.606 113.09 300.063 113.09 295.694C113.09 291.324 116.632 287.782 121.001 287.782C125.37 287.782 128.912 291.324 128.912 295.694Z" fill="white"/>
<path d="M181.803 108.572C181.803 112.942 178.261 116.483 173.891 116.483C169.522 116.483 165.98 112.942 165.98 108.572C165.98 104.202 169.522 100.66 173.891 100.66C178.261 100.66 181.803 104.202 181.803 108.572Z" fill="white"/>
<path d="M202.964 324.824C203.991 317.681 210.618 311.894 217.756 311.894C218.729 311.894 219.654 312.003 220.538 312.207C226.138 313.492 229.719 318.653 228.823 324.824C228.403 327.75 227.045 330.449 225.098 332.611C222.93 335.02 220.033 336.775 216.88 337.442C215.947 337.646 214.992 337.754 214.031 337.754C209.813 337.754 206.358 335.735 204.454 332.611C203.119 330.449 202.543 327.75 202.964 324.824ZM257.23 368.697C245.148 366.69 236.292 356.116 236.292 343.99C236.292 342.188 236.49 340.349 236.898 338.499L238.166 332.611L243.724 306.812H185.516L179.94 332.611L177.602 343.42C174.118 359.095 186.044 373.96 202.099 373.96H274.673V369.04C273.249 369.04 258.582 368.925 257.23 368.697Z" fill="#C5C8D8"/>
<path d="M208.829 324.824C209.718 318.642 214.796 313.481 220.774 312.207C221.705 312.003 222.66 311.894 223.621 311.894C230.766 311.894 235.722 317.681 234.689 324.824C234.268 327.75 232.91 330.449 230.958 332.611C228.151 335.735 224.114 337.754 219.897 337.754C218.923 337.754 217.998 337.646 217.115 337.442C214.17 336.769 211.779 335.014 210.319 332.611C208.985 330.449 208.409 327.75 208.829 324.824ZM260.236 363.302C258.962 362.297 257.791 361.168 256.739 359.937C255.309 358.272 254.096 356.416 253.141 354.427C252.852 353.82 252.582 353.195 252.341 352.565C251.746 351.026 251.302 349.423 251.031 347.764C250.509 344.681 250.563 341.437 251.29 338.157L252.486 332.611L258.036 306.812H191.273L185.685 332.611L183.078 344.657C182.843 345.697 182.705 346.736 182.645 347.764C182.536 349.398 182.645 351.008 182.934 352.565C183.048 353.195 183.198 353.814 183.378 354.427C183.943 356.398 184.82 358.254 185.949 359.937C186.772 361.162 187.728 362.292 188.798 363.302C192.3 366.625 197.041 368.697 202.364 368.697H275.791C269.849 368.697 264.472 366.66 260.236 363.302Z" fill="white"/>
<path d="M257.749 306.812L253.306 327.47H228.128C228.421 326.611 228.637 325.728 228.771 324.818C229.671 318.65 226.087 313.49 220.484 312.205C214.507 313.481 209.43 318.642 208.546 324.818C208.412 325.728 208.379 326.611 208.429 327.47H181.002L185.462 306.812H257.749Z" fill="#C5C8D8"/>
<path d="M337.521 121.692H78.4593C70.473 121.692 64 128.166 64 136.152V302.338C64 310.324 70.473 316.797 78.4593 316.797H337.521C345.507 316.797 351.98 310.324 351.98 302.338V136.152C351.98 128.166 345.507 121.692 337.521 121.692Z" fill="#C5C8D8"/>
<path d="M359.191 135.313V303.171C359.191 310.693 353.092 316.791 345.57 316.791H84.8323C77.3106 316.791 71.2109 310.693 71.2109 303.171V135.313C71.2109 127.784 77.3106 121.692 84.8323 121.692H345.57C352.242 121.692 357.792 126.485 358.959 132.824C359.113 133.627 359.191 134.463 359.191 135.313Z" fill="white"/>
<path d="M339.295 130.908H92.5393C86.5152 130.908 81.6309 135.793 81.6309 141.817V296.412C81.6309 302.436 86.5152 307.32 92.5393 307.32H339.295C345.32 307.32 350.204 302.436 350.204 296.412V141.817C350.204 135.793 345.32 130.908 339.295 130.908Z" fill="#C5C8D8"/>
<path d="M333.72 135.315H92.5393C86.5152 135.315 81.6309 140.2 81.6309 146.224V296.425C81.6309 302.449 86.5152 307.334 92.5393 307.334H333.72C339.744 307.334 344.628 302.449 344.628 296.425V146.224C344.628 140.2 339.744 135.315 333.72 135.315Z" fill="#F9F8F6"/>
<path d="M344.626 145.59V147.282H81.6309V145.59C81.6309 139.915 86.2304 135.315 91.9041 135.315H334.352C340.026 135.315 344.626 139.915 344.626 145.59Z" fill="#D5D7E3"/>
<path d="M95.2539 141.296C95.2539 142.862 93.9844 144.131 92.4187 144.131C90.853 144.131 89.5835 142.862 89.5835 141.296C89.5835 139.731 90.853 138.461 92.4187 138.461C93.9844 138.461 95.2539 139.731 95.2539 141.296Z" fill="white"/>
<path d="M105.672 141.296C105.672 142.862 104.402 144.131 102.837 144.131C101.271 144.131 100.001 142.862 100.001 141.296C100.001 139.731 101.271 138.461 102.837 138.461C104.402 138.461 105.672 139.731 105.672 141.296Z" fill="white"/>
<path d="M115.287 141.296C115.287 142.862 114.018 144.131 112.452 144.131C110.886 144.131 109.617 142.862 109.617 141.296C109.617 139.731 110.886 138.461 112.452 138.461C114.018 138.461 115.287 139.731 115.287 141.296Z" fill="white"/>
<g opacity="0.8">
<path d="M372.573 87.3396V184.634C372.573 189.782 368.399 193.957 363.25 193.957H217.571C212.423 193.957 208.248 189.782 208.248 184.634V87.3396C208.248 82.1911 212.423 78.0166 217.571 78.0166H363.25C368.399 78.0166 372.573 82.1911 372.573 87.3396Z" fill="white"/>
</g>
<path d="M217.805 122.494H223.475V177.299H217.805V122.494Z" fill="#E2E3EC"/>
<path d="M226.619 116.083H232.289V177.157H226.619V116.083Z" fill="#E2E3EC"/>
<path d="M235.436 110.874H241.105V177.193H235.436V110.874Z" fill="#E2E3EC"/>
<path d="M244.25 106.867H249.92V177.48H244.25V106.867Z" fill="#E2E3EC"/>
<path d="M253.867 106.867H259.537V177.48H253.867V106.867Z" fill="#E2E3EC"/>
<path d="M262.682 110.474H268.352V177.504H262.682V110.474Z" fill="#E2E3EC"/>
<path d="M271.498 117.285H277.168V177.293H271.498V117.285Z" fill="#E2E3EC"/>
<path d="M280.313 124.897H285.982V177.35H280.313V124.897Z" fill="#E2E3EC"/>
<path d="M289.127 134.515H294.797V177.421H289.127V134.515Z" fill="#E2E3EC"/>
<path d="M298.744 142.128H304.414V177.161H298.744V142.128Z" fill="#E2E3EC"/>
<path d="M307.559 145.333H313.229V177.165H307.559V145.333Z" fill="#E2E3EC"/>
<path d="M316.375 146.936H322.045V177.473H316.375V146.936Z" fill="#E2E3EC"/>
<path d="M325.19 145.333H330.859V177.165H325.19V145.333Z" fill="#E2E3EC"/>
<path d="M334.006 142.128H339.676V177.161H334.006V142.128Z" fill="#E2E3EC"/>
<path d="M343.621 136.918H349.291V177.447H343.621V136.918Z" fill="#E2E3EC"/>
<path d="M352.438 128.904H358.107V177.275H352.438V128.904Z" fill="#E2E3EC"/>
<path d="M216.262 117.646C241.504 96.71 259.342 92.6266 293.935 128.155C326.842 161.952 353.817 126.308 359.802 112.391" stroke="#FFD47A" stroke-width="0.00156159" stroke-miterlimit="10"/>
<path d="M372.573 87.3396V88.4991H208.248V87.3396C208.248 82.1911 212.423 78.0166 217.571 78.0166H363.25C368.399 78.0166 372.573 82.1911 372.573 87.3396Z" fill="#D5D7E3"/>
<path d="M223.475 83.1968C223.475 84.7626 222.205 86.0312 220.64 86.0312C219.074 86.0312 217.804 84.7626 217.804 83.1968C217.804 81.6311 219.074 80.3616 220.64 80.3616C222.205 80.3616 223.475 81.6311 223.475 83.1968Z" fill="#EE6C60"/>
<path d="M233.092 83.1968C233.092 84.7626 231.822 86.0312 230.257 86.0312C228.692 86.0312 227.421 84.7626 227.421 83.1968C227.421 81.6311 228.692 80.3616 230.257 80.3616C231.822 80.3616 233.092 81.6311 233.092 83.1968Z" fill="#F6BF50"/>
<path d="M243.51 83.1968C243.51 84.7626 242.24 86.0312 240.675 86.0312C239.11 86.0312 237.839 84.7626 237.839 83.1968C237.839 81.6311 239.11 80.3616 240.675 80.3616C242.24 80.3616 243.51 81.6311 243.51 83.1968Z" fill="#64CA57"/>
<mask id="mask0_480_1244" style="mask-type:alpha" maskUnits="userSpaceOnUse" x="71" y="64" width="289" height="228">
<path d="M359.322 79.917V276.075C359.322 284.865 353.22 291.992 345.695 291.992H84.8367C77.3114 291.992 71.209 284.865 71.209 276.075V79.917C71.209 71.1184 77.3114 64 84.8367 64H345.695C352.369 64 357.923 69.6004 359.09 77.0084C359.244 77.9473 359.322 78.9235 359.322 79.917Z" fill="white"/>
</mask>
<g mask="url(#mask0_480_1244)">
<path d="M240.305 188.607L248.534 201.215C258.939 206.452 263.759 195.584 270.41 193.963L259.85 176.697L240.305 188.607Z" fill="#EFD3C2"/>
<path d="M269.421 184.367L275.025 188.201C276.373 189.122 276.786 190.926 275.972 192.343C275.084 193.892 273.082 194.385 271.576 193.425L265.848 189.779C264.37 188.838 263.906 186.895 264.8 185.388C265.756 183.778 267.874 183.309 269.421 184.367Z" fill="#EFD3C2"/>
<path d="M283.438 186.174C282.894 187.089 281.805 187.558 280.722 187.296L272.482 185.32L263.511 192.936L257.934 186.015L258.324 185.819L272.116 178.99L276.694 180.624L282.156 182.57C283.454 183.035 284.127 184.474 283.631 185.769C283.581 185.907 283.511 186.05 283.438 186.174Z" fill="#EFD3C2"/>
<path d="M285.679 174.662C285.799 173.088 284.538 171.752 282.96 171.78L269.355 172.024L252.324 179.82L259.713 188.254L273.554 178.317L283.334 177.118C284.601 176.962 285.582 175.935 285.679 174.662Z" fill="#EFD3C2"/>
<path d="M244.311 188.806L255.151 175.245L265.582 173.382L264.069 179.559L260.232 181.516C260.232 181.516 258.863 195.653 244.311 188.806Z" fill="#E2AF96"/>
<path d="M265.055 173.382L269.492 177.635C270.457 178.559 270.501 180.086 269.592 181.064C268.784 181.934 267.469 182.098 266.473 181.453L263.543 179.559L265.055 173.382Z" fill="#E2AF96"/>
<path d="M275.47 197.856C274.897 198.814 273.836 199.436 272.637 199.392L265.848 199.097C264.103 199.019 262.723 197.565 262.742 195.816C262.751 195.316 262.881 194.843 263.09 194.417C263.126 194.33 263.167 194.263 263.207 194.195C263.241 194.139 263.281 194.071 263.326 194.022C263.956 193.097 265.048 192.525 266.242 192.627L273.01 193.138C273.97 193.223 274.815 193.729 275.33 194.481C275.404 194.587 275.473 194.704 275.54 194.82C275.78 195.24 275.913 195.733 275.909 196.251C275.906 196.847 275.747 197.394 275.47 197.856Z" fill="#EFD3C2"/>
<path d="M275.547 194.481C275.115 194.896 274.556 195.19 273.912 195.294L267.221 196.421C265.549 196.707 263.956 195.661 263.543 194.021C264.173 193.096 265.265 192.525 266.459 192.627L273.227 193.138C274.187 193.223 275.032 193.728 275.547 194.481Z" fill="#E2AF96"/>
<path d="M266.353 188.743L273.082 187.835C274.702 187.616 276.216 188.679 276.561 190.276C276.939 192.02 275.783 193.728 274.023 194.025L267.327 195.155C265.599 195.446 263.953 194.314 263.608 192.596C263.238 190.76 264.496 188.994 266.353 188.743Z" fill="#EFD3C2"/>
<path d="M240.303 188.872L253.043 172.819L265.348 170.577L263.589 177.875L259.067 180.201C259.067 180.201 257.51 196.894 240.303 188.872Z" fill="#EFD3C2"/>
<path d="M265.302 170.577L270.558 175.579C271.7 176.666 271.758 178.468 270.69 179.627H270.689C269.739 180.657 268.188 180.855 267.009 180.1L263.543 177.876L265.302 170.577Z" fill="#EFD3C2"/>
<path d="M276.177 192.552C275.725 193.308 274.957 193.874 274.02 194.033L267.318 195.154C265.593 195.453 263.946 194.315 263.603 192.61C263.461 191.851 263.575 191.123 263.905 190.494C263.927 190.431 263.968 190.363 264.001 190.307C264.494 189.483 265.322 188.892 266.341 188.751L273.075 187.834C273.872 187.729 274.652 187.935 275.268 188.365C275.913 188.796 276.38 189.474 276.554 190.282C276.729 191.091 276.575 191.887 276.177 192.552Z" fill="#EFD3C2"/>
<path d="M240.305 188.607L229.856 201.154L241.385 216.234L248.533 201.215L240.305 188.607Z" fill="#EFD3C2"/>
<path d="M205.365 238.287L187.825 251.693L181.474 256.556C174.51 247.876 168.488 240.798 163.399 233.471C155.299 221.825 149.528 209.591 145.994 189.448C144.484 180.826 149.846 172.465 158.332 170.295C161.855 169.397 165.445 169.693 168.637 170.953C172.113 172.328 175.112 174.827 177.055 178.235L197.469 221.53L201.65 230.392L205.365 238.287Z" fill="#E69771"/>
<path d="M248.96 203.248C242.747 221.834 232.056 237.715 220.662 248.327C210.596 257.688 199.985 262.948 191.419 262.345C187.409 262.061 183.854 260.493 181.002 257.473L184.342 245.407L185.546 241.056L189.352 227.344L235.47 192.615L248.96 203.248Z" fill="#E69771"/>
<path d="M221.106 248.45C211.04 257.811 200.429 263.071 191.864 262.469C187.853 262.185 184.298 260.617 181.446 257.596C174.482 248.916 168.461 241.838 163.371 234.511L165.7 199.827C165.7 199.827 175.193 225.563 185.991 241.18C193.649 252.256 202.533 256.423 221.106 248.45Z" fill="#DA755D"/>
<path d="M163.656 168.828L165.358 167.17C169.161 163.463 168.667 157.215 164.33 154.152L157.517 149.341L149.748 163.561L163.656 168.828Z" fill="white"/>
<path d="M133.303 314.235C133.609 314.275 133.901 314.282 134.208 314.288L176.884 315.289L173.29 275.384L172.468 263.045L119.798 258.328L106.631 261.853L103.558 273.524C98.2704 293.536 112.802 313.222 133.303 314.235Z" fill="#3D2425"/>
<path d="M245.955 308.019L242.893 421.924L221.464 420.31C225.401 396.477 203.767 317.774 221.644 285.084C234.967 283.947 246.314 294.652 245.955 308.019Z" fill="white"/>
<path d="M173.789 275.559L180.357 315.533L211.378 316.26C211.378 316.26 207.388 354.694 210.39 397.77C210.715 402.517 211.136 407.331 211.654 412.163L256.628 408.963L257.997 398.887L250.156 398.702L249.047 301.099C248.905 287.833 238.272 277.07 225.017 276.759L173.789 275.559Z" fill="#3D2425"/>
<path d="M186.99 308.679L164.348 420.352L142.419 418.576C146.357 394.743 143.752 311.018 166.995 281.897C180.314 283.073 189.647 295.574 186.99 308.679Z" fill="white"/>
<path d="M127.309 274.356L132.291 304.718L133.878 314.298L133.877 314.331L153.534 314.791C153.534 314.791 142.847 358.777 139.985 396.007C139.61 400.948 139.368 405.778 139.308 410.355L184.267 407.153L185.651 397.078L177.811 396.894L197.287 300.888C199.902 287.978 190.207 275.83 177.033 275.522L127.309 274.356Z" fill="#3D2425"/>
<path d="M133.303 314.235L133.302 314.268L152.96 314.729C152.96 314.729 142.273 358.714 139.41 395.944L146.135 396.102L161.462 314.928L163.234 305.572L134.411 304.896C133.49 304.875 132.586 304.789 131.716 304.655C119.838 302.857 111.717 291.182 114.652 279.136L119.798 258.328L106.631 261.853L103.558 273.524C98.2704 293.536 112.802 313.222 133.303 314.235Z" fill="#301516"/>
<path d="M173.25 142.584L170.19 146.949L160.805 160.36L155.239 168.301L134.521 162.72L154.339 104.062L173.25 142.584Z" fill="#EFD3C2"/>
<path d="M148.269 146.62C148.269 146.62 165.799 153.12 171.833 154.643C178.326 156.283 185.329 152.253 186.732 145.564C188.679 136.449 190.08 127.291 187.288 116.922C185.638 110.8 182.011 105.646 177.195 102.027C175.039 100.388 172.628 99.0713 170.046 98.1325L170.02 98.1202L168.552 97.6352L168.406 97.5786C167.67 97.3587 166.926 97.1839 166.171 97.0345C164.379 96.6603 162.537 96.4527 160.657 96.4494C158.86 96.4404 157.122 96.7309 155.514 97.2766C148.754 99.5694 144.149 106.385 145.053 113.956L145.848 120.455L148.269 146.62Z" fill="#EFD3C2"/>
<path d="M170.045 147.179L161.591 159.263C146.957 152.267 152.302 135.717 152.302 135.717L170.045 147.179Z" fill="#E2AF96"/>
<path d="M178.302 117.77C180.28 122.734 182.899 125.806 185.294 128.531C189.03 132.778 185.147 139.334 179.619 138.14L178.137 137.821L178.302 117.77Z" fill="#EFD3C2"/>
<path d="M157.811 114.041C167.839 110.375 164.654 102.731 164.654 102.731C164.654 102.731 167.906 109.192 176.304 105.357C176.304 105.357 178.143 110.89 185.591 110.825C193.038 110.758 197.916 94.135 180.208 94.4526C170.356 82.8589 159.507 87.003 156.398 94.5051C140.09 91.802 137.287 107.131 142.85 109.582C128.511 111.446 133.232 134.851 152.824 122.257L157.811 114.041Z" fill="#3D2425"/>
<path d="M156.832 128.735C145.042 99.5809 121.841 130.86 151.139 136.605L156.832 128.735Z" fill="#EFD3C2"/>
<path d="M172.512 263.316L121.273 260.799L119.79 260.943L119.061 260.872L106.683 262.135C106.683 262.135 107.087 244.913 106.039 219.675C105.59 208.421 103.452 196.22 106.398 183.833C114.181 151.265 139.98 149.839 138.414 151.317L166.101 170.568C167.239 174.479 171.015 182.158 172.802 191.038C172.948 191.701 173.074 192.399 173.182 193.078C173.538 195.403 173.767 197.779 173.746 200.201C173.748 200.878 173.731 201.591 173.643 202.301C173.602 203.334 173.487 204.4 173.321 205.429C172.321 211.572 169.47 217.671 163.483 223.019L163.579 223.43L163.595 223.52L172.512 263.316Z" fill="#E69771"/>
<path d="M153.754 161.762L158.169 178.533L163.092 168.254L153.754 161.762Z" fill="white"/>
<path d="M173.127 263.411L107.289 262.219C106.845 246.974 115.765 201.043 119 185.402L151.299 214.01L170.573 216.844L173.127 263.411Z" fill="#E69771"/>
<path d="M116.477 159.976C93.3556 170.828 91.1404 180.788 84.3818 237.104L113.629 234.338C113.629 234.338 138.997 194.918 141.012 175.611C141.419 171.709 140.777 148.57 116.477 159.976Z" fill="#E69771"/>
<path d="M138.255 186.655L132.151 262.709L106.852 262.252L110.48 177.789L138.255 186.655Z" fill="#DA755D"/>
<path d="M157.259 114.208L157.936 130.892L154.902 130.404L150.762 119.73L157.259 114.208Z" fill="#3D2425"/>
<path d="M172.454 126.158C172.306 128.56 171.298 130.453 170.202 130.386C169.107 130.318 168.338 128.316 168.487 125.913C168.634 123.511 169.643 121.619 170.739 121.686C171.833 121.753 172.602 123.755 172.454 126.158Z" fill="#1B1B1B"/>
<path d="M167.879 113.004C172.747 111.371 173.872 113.89 170.334 115.702C166.529 117.65 161.823 115.035 167.879 113.004Z" fill="#3D2425"/>
<path d="M186.88 124.955C186.732 127.357 185.724 129.25 184.628 129.183C183.533 129.115 182.764 127.113 182.913 124.71C183.06 122.309 184.069 120.416 185.165 120.483C186.259 120.55 187.028 122.553 186.88 124.955Z" fill="#1B1B1B"/>
<path d="M184.337 114.131C189.452 113.678 189.958 116.39 186.097 117.327C181.942 118.335 177.974 114.694 184.337 114.131Z" fill="#3D2425"/>
<path d="M146.541 396.166L163.653 305.643L134.823 304.968C121.521 304.655 111.912 292.127 115.061 279.197L117.871 267.661" stroke="#4C3536" stroke-width="0.000585596" stroke-miterlimit="10"/>
<path d="M105.672 267.545L172.202 269.104" stroke="#4C3536" stroke-width="0.000585596" stroke-miterlimit="10"/>
<path d="M115.287 277.45L129.965 275.806L131.799 268.746" stroke="#4C3536" stroke-width="0.000585596" stroke-miterlimit="10"/>
<path d="M193.789 315.721L196.18 304.717C199.306 290.329 188.546 276.656 173.826 276.31L141.734 275.559" stroke="#4C3536" stroke-width="0.000585596" stroke-miterlimit="10"/>
<path d="M156.826 129.004C156.826 129.004 162.321 136.528 168.512 138.263C176.148 140.404 183.611 134.523 188.959 135.252C190.43 140.809 189.44 155.445 175.189 156.466C165.183 157.183 154.275 147.086 151.769 140.897C149.264 134.709 151.469 131.479 151.012 119.689L156.826 129.004Z" fill="#3D2425"/>
<path d="M177.159 116.885C179.137 121.848 181.755 124.921 184.152 127.645C187.888 131.892 184.004 138.448 178.475 137.255L176.994 136.936" fill="#EFD3C2"/>
<path d="M177.159 116.885C179.137 121.848 181.755 124.921 184.152 127.645C187.888 131.892 184.004 138.448 178.475 137.255L176.994 136.936" stroke="#E2AF96" stroke-width="0.000780795" stroke-miterlimit="10"/>
<path d="M155.449 168.391L157.119 162.216C158.798 156.009 155.733 149.5 149.878 146.84L140.391 142.528L137.727 150.931L155.449 168.391Z" fill="white"/>
<path d="M143.336 165.844C149.689 157.342 176.981 164.758 176.981 164.758L179.928 168.293L143.336 165.844Z" fill="white"/>
<path d="M141.67 166.12C143.776 157.602 120.388 145.734 120.388 145.734L113.686 147.492L141.67 166.12Z" fill="white"/>
<path d="M148.599 165.909L180.642 167.51L182.067 168.881L147.344 169.775L148.599 165.909Z" fill="#558657"/>
<path d="M148.721 166.064L138.958 164.059L137.966 165.997L148.62 168.03L148.721 166.064Z" fill="#558657"/>
<path d="M113.628 145.496L139.198 164.155L138.686 166.132L111.516 145.813L113.628 145.496Z" fill="#558657"/>
<path d="M148.058 167.618L181.657 168.63L168.009 221.697L133.759 219.405L148.058 167.618Z" fill="#659D67"/>
<path d="M124.693 219.262L133.564 219.769L142.727 187.608L143.832 183.732L144.778 180.386L145.941 176.303L148.508 167.306L138.959 165.504L136.682 174.096L135.434 178.775L134.763 181.3L133.466 186.196L124.693 219.262Z" fill="#558657"/>
<path d="M135.322 178.99L144.261 180.581L145.374 176.55L136.516 174.372L135.322 178.99Z" fill="#ECCA49"/>
<path d="M133.721 186.604L142.581 187.999L143.638 184.172L134.961 181.772L133.721 186.604Z" fill="#ECCA49"/>
<path d="M112.049 145.75L138.969 165.992L125.321 219.059L97.7497 197.536L112.049 145.75Z" fill="#659D67"/>
<path d="M120.096 197.616C125.115 194.775 124.85 201.319 132.082 196.832C138.343 192.948 144.24 191.511 147.072 192.534C162.243 198.018 158.859 221.212 158.859 221.212L121.593 219.023L120.096 197.616Z" fill="#558657"/>
<path d="M166.576 214.653L139.169 212.254L138.601 214.71L166.009 217.109L166.576 214.653Z" fill="#ECCA49"/>
<path d="M131.796 174.121L112.753 161.61L110.971 168.578L130.021 181.013L131.796 174.121Z" fill="#ECCA49"/>
<path d="M118.881 222.543L117.691 208.911L118.727 199.305C118.899 197.702 120.495 196.658 122.034 197.141C123.08 197.47 123.799 198.429 123.822 199.524L123.976 206.65L125.622 212.655L118.881 222.543Z" fill="#EFD3C2"/>
<path d="M119.295 222.449L123.451 211.849L153.796 221.713C148.06 228.071 138.357 229.283 132.124 232.68L129.265 234.188L119.295 222.449Z" fill="#EFD3C2"/>
<path d="M123.303 211.932L130.138 217.718L130.413 217.268L135.042 209.667L135.05 209.642L138.297 202.124L146.831 194.751C147.407 194.254 147.631 193.461 147.399 192.736C147.019 191.548 145.619 191.041 144.567 191.713L133.851 198.552L125.592 209.034L123.303 211.932Z" fill="#EFD3C2"/>
<path d="M128.912 215.264L130.386 216.995L134.748 222.117L136.638 219.794L140.685 214.798L140.91 214.524L141.701 213.549L147.012 205.69L152.906 196.967C153.358 196.298 153.353 195.419 152.894 194.755L152.829 194.661C152.13 193.652 150.686 193.526 149.823 194.401L141.958 202.376L135.756 208.662L135.023 209.369L131.559 212.717L128.912 215.264Z" fill="#EFD3C2"/>
<path d="M143.991 226.271L153.373 221.644L157.528 214.826C158.099 213.89 157.885 212.671 157.028 211.975C156.439 211.498 155.677 211.385 155.005 211.592C154.581 211.723 154.188 211.984 153.896 212.368L150.258 217.215L145.84 219.717L150.983 214.16L155.789 205.112C156.159 204.402 156.067 203.541 155.555 202.933C155.131 202.422 154.514 202.193 153.909 202.237C153.407 202.274 152.919 202.503 152.564 202.922L147.01 209.45L134.521 217.465L143.991 226.271Z" fill="#EFD3C2"/>
<path d="M152.899 202.921L147.344 209.447L151.32 214.156L156.121 205.109C156.496 204.403 156.404 203.541 155.89 202.93C155.111 202.002 153.685 201.998 152.899 202.921Z" fill="#E2AF96"/>
<path d="M152.605 194.661C151.906 193.652 150.462 193.526 149.599 194.401L141.734 202.376L146.789 205.689L152.682 196.967C153.134 196.298 153.129 195.419 152.67 194.755L152.605 194.661Z" fill="#E2AF96"/>
<path d="M133.721 198.552L138.167 202.123L146.7 194.751C147.276 194.254 147.5 193.461 147.268 192.736C146.889 191.548 145.488 191.042 144.437 191.712L133.721 198.552Z" fill="#E2AF96"/>
<path d="M150.549 217.169L153.665 221.598L157.819 214.779C158.391 213.844 158.176 212.625 157.319 211.929C156.731 211.452 155.968 211.339 155.296 211.546C154.872 211.678 154.48 211.938 154.188 212.322L150.549 217.169Z" fill="#E2AF96"/>
<path d="M84.1647 236.901C81.5682 267.771 118.171 271.845 128.807 234.006L118.836 222.267L84.1647 236.901Z" fill="#E69771"/>
<path d="M172.988 141.423L177.841 140.926C176.208 150.952 172.988 141.423 172.988 141.423Z" fill="white"/>
<path d="M119.295 222.267L91.1766 234.135" stroke="white" stroke-width="0.000390398" stroke-miterlimit="10"/>
<path d="M189.816 227.476L235.935 192.747" stroke="white" stroke-width="0.000390398" stroke-miterlimit="10"/>
<path d="M128.643 234.19C118.009 272.032 81.4059 267.953 83.9953 237.087L84.2949 234.633C89.2819 253.833 114.714 256.671 125.973 231.054L128.643 234.19Z" fill="#DA755D"/>
<path d="M107.034 260.666C124.877 255.018 129.14 234.133 129.14 234.133" stroke="#E69771" stroke-width="0.000390398" stroke-miterlimit="10"/>
</g>
<g opacity="0.8">
<g opacity="0.8">
<path opacity="0.8" d="M339.859 307.475H91.9747C86.2616 307.475 81.6309 302.844 81.6309 297.132V291.986H350.203V297.132C350.203 302.844 345.572 307.475 339.859 307.475Z" fill="#241816"/>
</g>
</g>
<path d="M95.8763 300.071L90.5439 303.47C90.1541 303.717 89.6445 303.438 89.6445 302.976V296.179C89.6445 295.717 90.1541 295.437 90.5439 295.685L95.8763 299.084C96.2374 299.314 96.2374 299.841 95.8763 300.071Z" fill="#FFFFFD"/>
<path d="M102.467 299.6H341.797" stroke="#FFFFFD" stroke-width="0.00156159" stroke-miterlimit="10" stroke-linecap="round" stroke-linejoin="round"/>
<path d="M100.062 299.6H114.023" stroke="#D84F4C" stroke-width="0.00156159" stroke-miterlimit="10" stroke-linecap="round" stroke-linejoin="round"/>
<path d="M119.295 299.722C119.295 302.531 117.018 304.809 114.207 304.809C111.397 304.809 109.12 302.531 109.12 299.722C109.12 296.912 111.397 294.634 114.207 294.634C117.018 294.634 119.295 296.912 119.295 299.722Z" fill="#D84F4C"/>
<path d="M116.891 299.499C116.891 300.883 115.769 302.004 114.384 302.004C113 302.004 111.878 300.883 111.878 299.499C111.878 298.114 113 296.992 114.384 296.992C115.769 296.992 116.891 298.114 116.891 299.499Z" fill="#FFFFFD"/>
<path d="M365.214 202.231H268.314C263.466 202.231 259.537 206.161 259.537 211.008V255.695C259.537 260.543 263.466 264.472 268.314 264.472H365.214C370.06 264.472 373.989 260.543 373.989 255.695V211.008C373.989 206.161 370.06 202.231 365.214 202.231Z" fill="#D5D7E3"/>
<path d="M272.819 256.284C296.762 212.356 303.9 217.508 315.423 239.282C331.32 269.324 343.661 220.774 356.43 225.437L356.429 256.283L272.819 256.284Z" fill="#EBECF2"/>
<path d="M272.359 235.786C290.406 215.758 299.788 271.024 322.429 241.087C346.992 208.608 355.93 220.312 355.93 220.312" stroke="#E67C83" stroke-width="0.00156159" stroke-miterlimit="10"/>
<path d="M272.359 213.05V256.135H362.11" stroke="white" stroke-width="0.000780795" stroke-miterlimit="10"/>
<path d="M270.756 215.634L272.875 213.05L274.993 215.634" stroke="white" stroke-width="0.000780795" stroke-miterlimit="10"/>
<path d="M359.709 253.92L362.293 256.039L359.709 258.157" stroke="white" stroke-width="0.000780795" stroke-miterlimit="10"/>
<path d="M283.672 209.043H287.586V212.957H283.672V209.043Z" stroke="white" stroke-width="0.000780795" stroke-miterlimit="10"/>
<path d="M290.206 209.844H315.633V212.466H290.206V209.844Z" fill="#EBECF2"/>
<path d="M322.136 209.043H326.051V212.957H322.136V209.043Z" stroke="white" stroke-width="0.000780795" stroke-miterlimit="10"/>
<path d="M328.673 209.845H354.1V212.467H328.673V209.845Z" fill="#EBECF2"/>
</svg>
