<svg width="24" height="28" viewBox="0 0 24 28" fill="none" xmlns="http://www.w3.org/2000/svg">
<path d="M21.3333 11.3334H22.6667C23.0203 11.3334 23.3594 11.4739 23.6095 11.7239C23.8595 11.974 24 12.3131 24 12.6667V26.0001C24 26.3537 23.8595 26.6928 23.6095 26.9429C23.3594 27.1929 23.0203 27.3334 22.6667 27.3334H1.33333C0.979711 27.3334 0.640573 27.1929 0.390524 26.9429C0.140476 26.6928 0 26.3537 0 26.0001V12.6667C0 12.3131 0.140476 11.974 0.390524 11.7239C0.640573 11.4739 0.979711 11.3334 1.33333 11.3334H2.66667V10.0001C2.66667 8.77441 2.90808 7.56074 3.37712 6.42837C3.84617 5.296 4.53366 4.2671 5.40034 3.40042C6.26702 2.53374 7.29592 1.84625 8.42829 1.37721C9.56066 0.908162 10.7743 0.666748 12 0.666748C13.2257 0.666748 14.4393 0.908162 15.5717 1.37721C16.7041 1.84625 17.733 2.53374 18.5997 3.40042C19.4663 4.2671 20.1538 5.296 20.6229 6.42837C21.0919 7.56074 21.3333 8.77441 21.3333 10.0001V11.3334ZM2.66667 14.0001V24.6667H21.3333V14.0001H2.66667ZM10.6667 16.6667H13.3333V22.0001H10.6667V16.6667ZM18.6667 11.3334V10.0001C18.6667 8.23197 17.9643 6.53628 16.714 5.28604C15.4638 4.03579 13.7681 3.33341 12 3.33341C10.2319 3.33341 8.5362 4.03579 7.28596 5.28604C6.03571 6.53628 5.33333 8.23197 5.33333 10.0001V11.3334H18.6667Z" fill="#767676"/>
</svg>
