<svg width="1366" height="515" viewBox="0 0 1366 515" fill="none" xmlns="http://www.w3.org/2000/svg">
<path d="M661.752 181.934C664.215 191.488 661.179 198.877 650.797 203.654C646.253 205.735 643.047 210.682 639.183 214.291C635.064 218.155 628.865 221.319 627.378 225.99C626.168 229.79 630.436 235.459 632.559 240.172C634.427 244.312 632.155 246.711 629.48 249.195C622.325 255.841 618.907 262.444 624.831 272.593C630.436 282.168 622.538 290.172 617.782 297.964C617.463 298.495 613.578 297.794 612.453 296.626C610.945 295.034 610.223 292.508 609.693 290.236C608.758 286.244 607.315 286.478 603.833 288.007C595.361 291.722 586.571 294.779 577.803 297.794C570.733 300.215 568.737 298.962 566.847 291.573C566.423 289.896 567.208 287.561 566.295 286.414C563.939 283.442 560.393 278.283 558.334 278.728C546.55 281.234 538.227 273.718 528.822 269.748C524.958 268.113 522.665 267.688 519.714 270.66C513.981 276.414 507.569 279.238 499.501 275.034C498.249 274.397 496.083 275.183 494.448 275.692C485.467 278.495 485.064 278.643 482.729 269.875C481.646 265.82 480.627 263.633 476.041 264.164C471.985 264.631 467.102 263.187 463.896 264.949C454.045 270.384 447.569 260.215 439.013 260.469C438.185 260.491 436.72 258.049 436.529 256.605C435.022 246.287 433.726 235.926 432.431 225.586C432.283 224.44 432.92 223.06 432.495 222.104C430.372 217.433 440.266 212.019 432.346 208.601C428.737 207.03 423.45 209.493 418.907 209.79C417.718 209.875 415.531 208.983 415.319 208.155C412.368 196.032 405.446 184.758 407.845 171.403C408.376 168.41 406.954 164.44 405.17 161.743C398.206 151.255 399.374 140.618 404.512 130.299C408.1 123.102 412.474 116.074 417.654 109.96C421.624 105.289 425.255 106.541 428.652 111.934C431.752 116.839 434.745 121.807 438.058 126.584C445.276 137.009 452.941 145.565 467.569 137.667C471.242 135.671 476.847 136.711 481.476 137.136C490.372 137.943 497.06 134.631 503.323 128.452C514.385 117.518 519.905 115.777 532.474 124.312C544.236 132.295 554.661 125.947 565.595 125.161C568.27 124.97 571.667 121.191 573.005 118.282C576.996 109.578 586.635 103.696 584.958 91.8705C584.512 88.6434 589.777 84.2909 592.941 80.9576C598.376 75.2463 602.495 69.2378 601.922 60.8514C601.773 58.6433 602.538 56.2654 603.259 54.0998C609.034 36.3716 611.794 32.3376 632.304 36.775C634.852 37.327 637.824 37.4756 640.245 36.69C649.777 33.5265 658.61 35.5435 667.293 39.535C674.746 42.9745 675.701 48.3036 670.584 57.5181C669.777 58.9618 670.011 61.0425 669.056 62.3164C663.705 69.5775 663.514 74.8005 671.158 81.8918C676.55 86.8812 677.994 96.1805 680.966 103.633C681.051 103.845 678.546 105.48 677.124 105.777C674.342 106.35 672.707 107.497 674.724 110.172C678.164 114.716 681.497 119.514 685.701 123.272C690.818 127.858 697.039 131.17 702.304 135.629C705.425 138.261 705.383 142.274 701.434 144.249C697.909 146.011 693.769 147.051 689.82 147.327C685.51 147.603 681.136 146.626 676.784 146.202C677.208 152.89 670.223 147.454 668.865 150.979C666.402 157.454 663.748 163.909 661.901 170.554C660.988 173.739 661.752 177.454 661.752 181.934Z" fill="#F4F4F4"/>
<path d="M334.236 252.486C330.669 256.754 341.094 263.59 332.792 265.565C329.204 266.414 324.278 260.83 319.735 258.601C313.833 255.714 311.943 256.499 315.361 263.293C316.253 265.077 314.491 269.28 312.665 271.128C306.784 277.072 313.132 284.376 309.671 290.809C306.699 296.329 306.635 302.338 308.27 309.238C311.157 321.34 305.425 333.166 302.962 345.055C302.219 348.622 300.181 348.07 297.994 346.584C292.962 343.166 288.312 341.531 283.833 347.688C283.344 348.368 279.756 346.988 277.697 346.329C274.661 345.374 271.709 344.185 268.716 343.102C269.374 345.799 270.181 348.453 270.627 351.191C270.796 352.189 270.117 353.336 269.82 354.419C268.419 353.909 266.593 353.803 265.722 352.826C261.455 348.049 256.253 343.612 253.62 338.007C249.353 328.92 242.261 323.506 234.3 318.474C225.956 313.208 217.23 308.325 209.714 302.019C204.554 297.688 201.009 291.361 197.102 285.671C195.191 282.89 194.958 277.943 192.559 276.648C179.034 269.493 173.535 254.758 162.24 245.565C157.803 241.956 153.047 237.964 156.784 230.745C157.548 229.28 155.977 226.414 155.17 224.334C147.505 204.694 136.635 186.839 124.703 169.578C124.045 168.622 123.28 167.518 122.304 167.03C108.992 160.682 106.168 148.304 103.832 135.501C103.111 131.531 101.794 127.624 100.393 123.824C97.0384 114.737 91.7093 107.603 82.0065 104.121C75.4248 101.764 71.5606 97.8791 68.8643 89.8748C65.1275 78.7708 56.2315 69.3653 49.4587 59.3016C48.843 58.4098 47.6116 57.4969 46.5925 57.3695C28.8218 55.2676 21.5394 39.4077 10.2018 29.1104C6.25273 25.5223 4.80901 19.0467 2.60094 13.7177C0.902422 9.61999 -3.21649 4.39705 1.56058 1.1911C4.76653 -0.953275 10.4778 0.405533 15.0426 0.639078C16.6349 0.724004 18.1636 2.14652 19.7135 2.95331C31.9428 9.34398 44.9789 11.9979 58.6519 10.4905C71.497 9.08921 79.8197 14.4183 84.7454 26.1593C87.3781 32.4862 95.0214 35.8408 95.2337 43.9088C95.2762 45.5224 98.2061 47.2633 100.053 48.6221C111.285 56.9236 122.622 65.0977 133.854 73.4205C135.722 74.8005 138.355 76.3292 138.822 78.2188C140.308 84.3759 143.705 87.5606 149.756 89.5564C152.431 90.4481 153.939 94.8642 155.998 97.6668C158.164 100.618 160.266 103.378 164.385 100.172C168.864 96.6901 173.068 97.6031 176.911 101.425C177.739 102.253 178.546 103.229 179.544 103.739C189.31 108.856 192.198 111.276 196.465 118.707C198.1 121.552 199.607 123.251 203.238 121.319C209.756 117.879 213.408 121.043 214.236 127.476C215.149 134.503 216.911 138.601 225.382 135.629C229.968 134.015 233.748 142.571 240.096 137.539C241.9 136.117 247.314 144.779 244.937 146.202C238.461 150.045 240.966 152.508 244.788 155.883C247.399 158.198 249.799 160.745 252.049 163.399C252.665 164.142 252.898 166.414 252.537 166.626C246.593 169.875 250.287 176.818 246.932 180.936C245.085 183.187 242.134 184.886 241.136 187.412C240.329 189.493 240.733 193.378 242.219 194.779C247.038 199.344 253.217 200.491 259.926 200.809C268.886 201.234 271.391 202.741 269.99 211.17C267.76 224.482 281.858 227.221 284.257 237.094C284.554 238.304 288.291 239.429 290.393 239.344C296.38 239.089 300.457 241 302.729 246.903C303.281 248.325 306.168 248.813 307.973 249.748C308.44 247.582 309.692 245.246 309.268 243.272C307.527 235.31 304.915 233.527 295.935 232.975C293.047 232.805 290.138 232.635 287.293 232.168C286.784 232.083 285.935 230.066 286.189 229.79C290.329 225.246 294.215 220.321 299.034 216.648C301.455 214.801 305.68 215.246 309.119 214.822C315.68 214.036 319.714 217.582 319.65 223.612C319.544 234.418 323.514 241.531 334.172 244.652C335.595 245.077 337.442 247.094 337.442 248.368C337.336 249.79 335.34 251.149 334.236 252.486Z" fill="#F4F4F4"/>
<path d="M1365.51 459.386C1354.87 448.813 1345.6 439.938 1336.74 430.639C1333.15 426.86 1329.48 425.395 1324.32 426.01C1319.42 426.584 1314.62 430.405 1309.29 426.435C1308.31 425.713 1304.51 427.093 1303.34 428.558C1292.37 442.295 1277.25 434.482 1264.02 436.265C1263.68 436.308 1262.22 433.526 1262.62 432.826C1267.46 424.248 1272.13 415.501 1277.8 407.475C1279.86 404.546 1284.24 402.762 1287.91 401.531C1295.66 398.94 1294.28 399.344 1293.6 390.618C1292.26 373.505 1281.88 360.894 1274.02 347.157C1268.08 336.775 1258.16 330.448 1246.27 327.221C1239.63 325.416 1233.13 322.613 1227.02 319.407C1217.61 314.482 1208.04 310.257 1197.34 310.193C1187.93 310.129 1180.33 306.945 1174.02 300.066C1172.6 298.516 1169.91 296.138 1168.76 296.605C1156.7 301.403 1150.39 293.017 1143.81 285.904C1139.59 281.34 1137.61 282.316 1135.83 287.539C1135.28 289.174 1134.43 290.787 1133.45 292.21C1130.31 296.711 1126.25 299.875 1120.44 299.11C1116.25 298.558 1112.52 290.957 1113.05 284.864C1114.13 272.359 1110.8 267.56 1097.68 264.333C1093.75 263.356 1090.07 261.764 1091.58 257.964C1092.77 254.991 1098.46 250.681 1099.86 251.403C1109.46 256.308 1116.76 252.741 1123.73 246.669C1127.57 243.335 1131.16 245.756 1134.94 246.393C1137.23 246.775 1139.65 246.817 1141.94 246.541C1143.47 246.35 1144.87 245.331 1146.34 244.694C1144.75 243.08 1143.28 240.257 1141.54 240.066C1136.34 239.492 1131.01 239.811 1125.76 240.108C1124.11 240.214 1122.54 241.849 1120.88 241.976C1102.28 243.356 1096.08 246.605 1087.65 225.925C1085.68 221.106 1082.58 217.794 1077.14 218.516C1064.6 220.214 1055.49 216.032 1050.12 204.248C1049.48 202.847 1047.46 202.104 1046.25 200.872C1045.34 199.938 1043.88 198.218 1044.15 197.751C1044.98 196.35 1046.42 194.694 1047.89 194.376C1050.69 193.76 1054.15 192.974 1056.51 194.078C1070.07 200.363 1082.13 194.312 1091.92 187.221C1105.04 177.73 1115.96 178.133 1128.67 186.605C1133.83 190.044 1140.29 191.87 1146.4 193.463C1159.82 196.945 1163.66 202.656 1161.29 215.756C1159.86 223.675 1158.8 231.722 1158.46 239.726C1158.16 246.732 1160.8 248.112 1166.68 243.993C1170.2 241.509 1173.11 239.322 1172.22 245.692C1171.05 253.993 1175.59 259.365 1179.27 265.692C1185.02 275.649 1189.48 278.049 1197.8 270.957C1206.1 263.887 1213.75 255.416 1219.44 246.201C1222.75 240.851 1226.1 239.471 1231.33 238.134C1238.36 236.329 1245.06 234.97 1248.91 226.159C1253.17 216.35 1262.9 214.758 1274.11 217.9C1284.83 220.915 1294.92 224.906 1304.3 231.127C1315.51 238.537 1327.74 243.696 1341.5 244.821C1346.59 245.246 1351.56 247.39 1356.51 248.962C1360.88 250.363 1362.81 253.272 1362.73 258.155C1362.5 271.637 1362.35 285.161 1362.84 298.643C1363.28 310.872 1364.75 323.059 1365.45 335.289C1365.81 341.722 1366.53 348.367 1365.36 354.609C1361.22 376.754 1362.52 398.686 1365.28 420.851C1366.72 432.805 1365.51 445.098 1365.51 459.386Z" fill="#F4F4F4"/>
<path d="M846.084 163.93C837.995 162.168 831.285 160.639 824.534 159.259C822.262 158.792 819.884 158.601 817.549 158.58C795.256 158.368 772.963 158.24 750.691 158.028C744.47 157.964 741.158 161.128 739.311 166.86C735.107 180.045 734.513 192.147 747.995 200.682C752.602 203.591 752.028 213.569 759.99 211.022C764.534 209.557 767.803 204.504 771.965 201.489C774.661 199.535 778.674 196.351 780.818 197.136C794.364 202.168 804.64 192.083 816.593 190.215C819.375 189.769 821.859 187.603 824.661 187.03C834.152 185.098 839.672 190.47 836.657 199.833C835.15 204.546 834.874 206.223 839.014 209.472C841.37 211.319 841.307 216.86 841.434 220.788C841.54 224.079 839.46 226.075 835.68 224.716C831.519 223.23 827.421 220.852 823.196 220.597C820.096 220.406 817.358 221.34 816.721 217.412C816.062 213.336 815.404 209.09 821.243 207.816C823.472 207.327 825.68 206.436 827.697 205.353C828.547 204.886 828.886 203.463 829.46 202.487C828.419 202.02 827.23 200.958 826.36 201.17C822.581 202.083 816.933 202.274 815.532 204.737C809.077 216.138 798.653 221.913 787.803 227.837C780.84 231.637 781.285 233.357 786.296 239.068C792.432 246.075 798.61 253.102 803.876 260.746C805.914 263.718 805.468 268.41 806.211 272.296C807.167 277.306 807.527 282.529 809.29 287.243C812.389 295.502 812.772 295.353 822.559 293.102C828.95 291.637 832.687 294.589 829.927 300.236C827.421 305.353 828.695 308.729 830.033 313.272C830.903 316.202 830.266 321.913 828.504 322.784C823.578 325.226 824.024 326.924 827.464 329.918C832.708 334.504 830.394 338.007 825.659 340.916C823.727 342.105 821.477 342.763 819.523 343.952C815.723 346.266 812.135 348.92 808.271 351.085C807.591 351.468 798.971 334.079 799.077 332.381C799.481 325.098 801.901 318.899 807.719 314.015C810.16 311.977 808.844 310.024 805.744 309.833C799.884 309.472 795.128 310.406 795.489 318.071C795.765 324.1 791.328 324.652 787.082 323.994C777.209 322.444 771.392 314.716 775.256 304.865C778.186 297.412 775.298 295.799 770.224 293.506C767.591 292.317 764.874 291.213 762.496 289.62C757.655 286.372 755.383 281.956 757.485 276.032C758.462 273.315 760.203 270.618 760.224 267.879C760.266 263.378 759.205 258.856 758.631 254.355C754.937 255.629 750.988 256.436 747.634 258.304C743.133 260.831 740.648 265.034 743.642 270.088C747.57 276.754 748.037 284.567 745.001 290.342C740.563 298.792 746.806 306.351 744.3 314.164C741.71 322.232 742.007 330.066 745.786 337.986C747.166 340.894 746.827 344.822 741.413 345.311C736.317 345.778 731.307 347.179 726.275 348.262C715.532 350.576 709.311 344.695 710.967 333.548C712.665 322.083 714.81 310.682 716.232 299.196C716.699 295.374 715.298 291.34 715.149 287.412C714.873 279.451 712.347 276.754 704.449 281.234C700.287 283.591 695.532 281.085 694.704 276.669C693.026 267.667 690.181 257.646 698.546 250.427C708.355 241.956 708.992 230.385 711.116 219.132C712.177 213.506 711.922 206.16 715.362 202.699C725.765 192.253 725.808 179.005 728.971 166.245C731.137 157.497 736.381 149.45 740.691 141.34C741.264 140.257 745.256 139.535 746.105 140.321C750.181 144.121 751.561 144.036 754.321 138.453C760.585 125.735 762.05 125.714 774.449 130.279C799.438 139.472 825.362 141.871 851.774 141.128C859.714 140.894 863.77 134.801 869.141 130.937C873.642 127.71 876.572 122.402 880.712 118.58C884.13 115.417 887.931 115.374 891.392 119.387C894.343 122.805 893.472 125.141 890.818 128.389C883.111 137.816 876.912 148.835 867.973 156.797C862.581 161.531 853.154 161.807 846.084 163.93Z" fill="#F4F4F4"/>
<path d="M537.079 405.203C541.771 405.203 546.697 404.311 551.092 405.458C555.253 406.541 561.453 409.067 562.238 412.125C564.68 421.594 571.156 420.235 577.313 419.365C585.359 418.239 592.472 419.641 598.374 425.161C599.478 426.201 599.903 429.662 599.054 430.851C593.194 438.876 584.425 440.596 575.02 436.031C572.408 434.757 569.86 433.335 567.143 432.379C566.06 431.997 564.595 432.698 563.3 432.91C563.597 434.014 563.873 435.097 564.17 436.201C564.722 438.261 565.253 440.32 565.805 442.379C563.746 442.146 561.58 442.273 559.648 441.658C541.516 435.798 523.661 430.426 504.128 429.004C490.667 428.027 476.93 432.252 463.512 426.711C451.262 421.658 438.183 418.6 425.614 414.248C415.572 410.787 393.682 408.706 378.82 410.978C371.898 412.019 363.894 409.81 357.121 407.156C346.824 403.123 337.036 399.258 325.487 400.914C318.841 401.87 317.864 399.152 318.841 389.768C319.011 388.069 317.758 384.842 316.697 384.63C309.414 383.144 302.578 378.43 294.637 381.212C293.024 381.785 290.985 383.101 289.839 382.57C287.928 381.679 286.145 379.789 285.147 377.878C284.722 377.05 286.208 374.057 287.164 373.887C296.357 372.167 299.712 364.142 304.913 358.069C310.922 351.063 316.867 345.776 327.27 351.912C331.601 354.46 337.822 357.475 343.852 352.953C345.211 351.934 349.457 352.273 350.306 353.462C355.232 360.469 362.705 358.643 369.351 360.193C376.548 361.891 384.234 363.335 388.841 370.575C392.302 376.031 397.758 376.944 404.043 377.22C412.684 377.581 421.219 379.683 429.839 380.575C437.079 381.339 443.003 380.32 447.376 372.464C451.856 364.396 453.088 365.288 463.13 369.386C467.822 371.297 473.045 372.401 478.098 372.783C483.491 373.186 488.226 373.738 492.642 377.602C494.956 379.619 498.99 380.15 502.302 380.426C518.544 381.785 534.829 382.783 551.071 384.057C552.387 384.163 553.618 385.352 554.892 386.052C554.128 386.923 553.533 388.069 552.578 388.6C541.792 394.46 531.028 400.384 517.949 396.774C516.93 396.498 515.529 397.645 514.298 398.133C515.104 399.556 515.678 401.955 516.761 402.231C523.406 403.866 530.158 405.012 536.867 406.328C536.93 405.925 537.015 405.564 537.079 405.203Z" fill="#F4F4F4"/>
<path d="M974.895 101.87C975.595 107.157 972.368 111.934 974.958 117.943C978.801 126.881 971.285 132.932 966.062 139.195C965.319 140.087 966.084 142.231 966.147 143.802C967.145 143.335 968.525 143.144 969.098 142.359C972.432 137.794 975.213 132.762 978.929 128.537C981.795 125.267 985.447 122.274 989.353 120.49C991.158 119.662 995.213 121.34 996.763 123.165C998.143 124.779 997.952 128.219 997.612 130.724C997.315 132.932 996.338 135.501 994.767 136.987C991.434 140.172 987.549 142.762 983.876 145.586C987.379 147.709 991.519 149.216 994.152 152.125C996.296 154.482 996.721 158.473 997.761 161.785C998.016 162.614 997.697 163.654 997.633 164.588C996.551 164.503 995.171 164.8 994.406 164.27C989.056 160.49 983.536 156.987 976.636 158.749C974.958 159.174 972.75 161.297 972.474 162.911C971.073 171.17 971.625 179.238 977.124 186.18C979.311 188.919 981.922 191.361 983.918 194.227C984.725 195.395 984.427 197.327 984.619 198.919C982.58 198.856 980.478 199.025 978.504 198.643C977.506 198.452 976.721 197.2 975.808 196.456C973.493 194.567 973.493 194.567 966.381 196.711C960.372 198.516 948.716 193.654 946.168 187.773C944.873 184.8 943.302 180.575 944.47 178.197C946.423 174.248 950.202 176.881 953.515 178.049C958.971 179.96 962.453 177.603 962.729 172.21C962.835 170.023 962.113 167.773 961.583 165.586C959.268 156.202 956.848 146.839 954.512 137.454C952.007 127.369 957.782 119.344 961.71 111.127C964.13 106.053 967.973 100.851 975.383 102.529L974.895 101.87Z" fill="#F4F4F4"/>
<path d="M863.874 437.752C857.462 436.584 852.43 435.417 847.313 434.865C844.723 434.589 842.048 435.693 839.373 435.799C819.182 436.712 800.519 446.054 780.519 447.051C764.256 447.858 747.844 445.417 731.517 445.799C725.933 445.926 721.39 445.778 717.25 442.232C714.872 440.194 709.925 439.663 711.836 434.971C712.112 434.313 716.995 436.266 719.309 435.544C723.046 434.376 726.867 432.572 729.819 430.066C738.332 422.848 746.485 420.852 756.57 427.752C765.233 433.676 775.445 433.145 785.912 433.76C799.67 434.567 811.411 433.357 823.152 426.245C827.335 423.697 833.173 423.357 838.311 423.039C849.394 422.38 860.541 422.083 871.645 422.317C876.061 422.402 880.774 423.676 884.744 425.629C887.696 427.073 887.866 431.51 884.638 432.614C877.674 435.056 870.243 436.266 863.874 437.752Z" fill="#F4F4F4"/>
<path d="M693.813 446.945C689.419 446.945 686.765 447.688 686.043 446.838C679.058 438.579 672.561 444.779 666.51 447.688C653.813 453.802 641.86 456.69 630.183 445.501C629.015 444.376 625.193 446.01 622.603 446.393C616.531 447.284 610.565 451.764 604.365 447.221C603.198 446.35 602.709 444.546 601.924 443.165C610.926 441.191 606.701 431.255 611.733 426.881C617.38 421.976 624.811 421.212 628.527 427.327C632.688 434.185 636 433.038 642.433 431.382C650.183 429.386 653.877 419.386 663.644 422.061C671.393 424.185 679.503 424.949 687.338 426.796C691.775 427.836 696.361 429.301 700.162 431.679C702.709 433.272 705.894 437.284 705.385 439.429C704.748 442.189 700.947 444.546 698.017 446.287C696.17 447.348 693.474 446.987 693.813 446.945Z" fill="#F4F4F4"/>
<path d="M993.387 257.093C997.76 259.725 1002.83 251.636 1007.06 257.326C1012.11 264.12 1016.1 254.906 1021.16 256.965C1034.58 262.443 1050.65 263.441 1057.1 279.789C1057.74 281.403 1059.1 283.038 1058.97 284.566C1058.78 286.732 1057.87 289.067 1056.53 290.766C1055.96 291.488 1053.34 291.254 1052.03 290.638C1046.25 287.963 1040.67 284.885 1034.89 282.188C1027.99 278.961 1021.99 272.634 1012.86 278.048C1010.54 279.428 1004.96 276.965 1001.79 274.863C996.784 271.509 995.701 274.057 995.913 278.069C996.168 283.229 994.703 285.182 989.162 285.288C984.193 285.373 979.183 287.05 974.363 288.6C971.816 289.428 969.289 292.677 967.293 288.791C966.253 286.732 966.253 283.441 967.123 281.254C970.075 273.908 967.994 271.934 960.648 274.078C960.011 274.269 958.142 272.783 958.227 272.379C958.546 270.893 959.098 268.749 960.223 268.239C963.28 266.838 968.164 267.135 969.629 264.948C975.637 255.904 984.427 256.987 993.387 257.093Z" fill="#F4F4F4"/>
<path d="M834.599 497.009C833.665 493.145 824.344 488.538 835.639 485.714C836.361 485.544 837.402 483.718 837.168 483.123C833.601 474.482 840.501 470.682 845.087 465.969C853.898 456.924 865.618 452.975 877.083 448.877C879.228 448.113 883.049 449.132 884.684 450.767C885.979 452.062 885.788 455.735 885.13 458.007C880.777 472.741 870.629 482.529 854.96 490.109C848.166 493.4 842.306 498.346 834.09 496.457L834.599 497.009Z" fill="#F4F4F4"/>
<path d="M718.906 461.148C725.191 457.454 731.348 460.915 737.208 467.836C740.074 471.212 744.808 472.932 748.503 475.692C752.537 478.728 754.957 482.635 752.133 487.709C749.607 492.252 745.233 494.333 740.35 493.25C736.528 492.422 732.112 490.915 729.543 488.219C721.857 480.108 712.303 477.136 701.793 475.373C699.776 475.034 696.91 471.785 696.868 469.853C696.825 467.56 699.012 463.739 700.987 463.187C705.891 461.785 711.199 461.892 718.906 461.148Z" fill="#F4F4F4"/>
<path d="M1176.31 357.9C1176.48 358.75 1177.31 362.062 1177.74 365.395C1178.14 368.601 1178.99 372.147 1178.1 375.077C1175.53 383.718 1171.73 387.115 1169.82 384.928C1163.79 378.007 1163.09 388.134 1159.05 387.433C1155.53 386.818 1151.41 383.208 1152.13 379.089C1154.11 367.943 1155.93 356.733 1158.73 345.777C1159.58 342.508 1163.3 339.833 1166.06 337.264C1166.82 336.563 1169.29 336.584 1170.16 337.285C1176 341.913 1177.19 345.65 1176.31 357.9Z" fill="#F4F4F4"/>
<path d="M931.9 264.27C933.662 264.27 935.445 264.058 937.165 264.313C946.231 265.65 952.452 273.697 950.498 281.383C948.842 287.88 937.738 293.655 930.583 291.362C927.292 290.3 924.171 288.559 921.22 286.733C915.509 283.251 910.201 278.304 912.133 271.425C913.853 265.311 920.817 264.78 926.634 264.313C928.375 264.164 930.137 264.292 931.9 264.27Z" fill="#F4F4F4"/>
<path d="M928.885 227.497C925.828 228.282 923.875 229.068 921.858 229.259C914.724 229.917 911.199 232.486 914.809 240.236C915.488 241.679 913.96 244.142 913.45 246.138C912.112 245.076 909.841 244.163 909.607 242.89C907.802 233.081 900.902 231.616 892.749 232.168C885.297 232.656 877.866 233.484 870.393 233.994C867.909 234.163 865.361 233.803 862.855 233.675C863.599 229.96 863.131 224.333 865.318 222.953C869.437 220.363 875.297 218.749 880.117 219.344C896.019 221.361 911.773 224.546 928.885 227.497Z" fill="#F4F4F4"/>
<path d="M1054.53 431.977C1062.24 424.885 1063.94 416.181 1061.86 406.35C1061.58 405.013 1061.09 402.55 1061.48 402.38C1070.27 398.516 1077.55 390.936 1088.06 391.255C1089.16 391.297 1090.44 391.637 1091.31 392.274C1092.18 392.911 1092.98 394.036 1093.2 395.055C1093.34 395.777 1092.45 397.476 1092.07 397.454C1082.79 397.136 1081.73 403.909 1079.03 410.639C1074.85 421.127 1066.68 428.516 1054.53 431.977Z" fill="#F4F4F4"/>
<path d="M364.216 268.304C364.089 268.367 362.157 270.066 360.076 270.236C358.59 270.363 356.063 268.792 355.511 267.391C351.881 258.24 352.645 256.096 360.947 250.873C363.346 249.365 366.467 246.733 368.484 247.306C372.518 248.474 377.104 250.724 379.439 253.994C382.348 258.091 379.567 268.049 375.639 269.45C372.942 270.363 369.418 268.919 364.216 268.304Z" fill="#F4F4F4"/>
<path d="M1054.85 169.152C1055.91 169.386 1060.63 169.725 1064.68 171.573C1068.02 173.08 1072.77 176.18 1072.98 178.876C1073.45 185.055 1067.51 182.677 1063.92 183.229C1062.22 183.483 1060.48 183.611 1058.8 183.929C1054.58 184.757 1052.33 192.422 1047.38 188.579C1044.39 186.265 1044.81 181.021 1040.18 178.133C1035.81 175.394 1038.74 169.598 1044.39 169.152C1046.68 169.004 1049.01 169.152 1054.85 169.152Z" fill="#F4F4F4"/>
<path d="M99.0127 195.671C102.665 198.452 106.104 199.726 106.932 201.956C109.947 210.024 112.134 218.41 114.363 226.733C114.469 227.094 111.773 229.004 110.69 228.771C102.919 227.115 91.5817 213.145 92.5371 205.395C92.9618 202.21 96.4225 199.387 99.0127 195.671Z" fill="#F4F4F4"/>
<path d="M936.571 408.644C935.382 417.434 928.418 421.871 920.796 420.342C917.421 419.663 913.939 419.451 910.499 419.302C907.59 419.174 904.66 419.45 901.73 419.557C903.578 416.075 904.66 410.491 907.399 409.535C914.894 406.903 923.026 405.884 931.009 404.971C932.877 404.78 935.064 407.603 936.571 408.644Z" fill="#F4F4F4"/>
<path d="M59.7567 122.656C69.2472 123.845 73.4935 131.7 77.7822 137.942C79.693 140.724 76.4234 147.454 74.8098 152.125C74.0667 154.248 71.8162 155.182 69.7992 152.274C64.831 145.182 59.5019 138.346 54.6399 131.17C53.5784 129.598 52.8777 126.392 53.7482 125.225C54.8735 123.717 57.7185 123.441 59.7567 122.656Z" fill="#F4F4F4"/>
<path d="M1205.98 217.241C1216.11 219.513 1226.23 221.743 1236.32 224.142C1237.17 224.354 1238.08 225.798 1238.21 226.774C1238.29 227.348 1237.04 228.452 1236.19 228.791C1221.92 234.248 1209.06 229.556 1196.51 223.08C1195.6 222.613 1194.85 221.318 1194.64 220.299C1194.56 219.895 1196.08 218.685 1196.91 218.622C1199.82 218.409 1202.77 218.537 1205.68 218.537C1205.81 218.112 1205.89 217.666 1205.98 217.241Z" fill="#F4F4F4"/>
<path d="M1195.17 190.278C1205.83 189.492 1212.73 193.548 1218.61 199.492C1220.14 201.042 1225.74 200.448 1222.6 204.694C1220.63 207.369 1219.44 211.531 1213.32 209.683C1205.32 207.284 1201.37 200.193 1194.62 196.562C1193.2 195.798 1192.88 192.932 1192.07 191.042C1193.71 190.66 1195.32 190.235 1195.17 190.278Z" fill="#F4F4F4"/>
<path d="M975.447 102.486C975.595 93.5262 984.491 93.3351 989.268 89.0464C989.693 88.6642 992.453 90.0655 993.366 91.212C997.124 95.989 995.787 105.14 990.266 108.07C986.211 110.214 981.222 111.063 978.568 104.949C977.995 103.632 976.169 102.889 974.916 101.87L975.447 102.486Z" fill="#F4F4F4"/>
<path d="M972.262 225.692C967.888 224.97 964.406 224.694 961.115 223.781C954.958 222.061 953.005 218.622 953.918 212.295C954.597 207.539 958.101 206.52 961.434 208.027C966.062 210.108 970.287 213.25 974.406 216.329C976.062 217.56 978.334 220.851 977.91 221.424C976.487 223.356 973.982 224.503 972.262 225.692Z" fill="#F4F4F4"/>
<path d="M37.5054 96.8813C36.1466 98.0278 34.5542 100.363 32.7496 100.576C30.775 100.809 28.206 99.4715 26.5287 98.0702C21.4544 93.824 14.4905 91.0002 13.9597 83.0384C13.9173 82.5076 15.6795 81.4036 16.6774 81.3399C23.4077 80.8303 35.3186 88.4736 37.3568 94.5034C37.5054 95.0129 37.4205 95.6286 37.5054 96.8813Z" fill="#F4F4F4"/>
<path d="M1115.02 354.376C1112.9 353.718 1109.46 357.115 1108.84 352.062C1108.27 347.348 1108.42 342.741 1113.43 340.257C1113.75 340.108 1115.32 341.934 1115.93 343.059C1116.72 344.524 1117.12 346.202 1117.67 347.794C1118.31 346.414 1118.86 344.97 1119.63 343.654C1121.28 340.766 1122.9 337.794 1124.96 335.183C1125.32 334.737 1128.76 335.565 1128.99 336.329C1130.12 340.172 1123.24 354.27 1119.78 355.268C1118.4 355.671 1116.61 354.715 1115.02 354.376Z" fill="#F4F4F4"/>
<path d="M1040.05 220.873C1042.84 222.911 1046.06 224.397 1047.65 226.903C1048.23 227.794 1045.28 231.722 1043.2 233.336C1038.21 237.242 1028.08 235.225 1025.13 229.896C1024.66 229.047 1025.62 226.372 1026.57 225.926C1030.71 224.058 1035.06 222.699 1040.05 220.873Z" fill="#F4F4F4"/>
<path d="M834.089 496.457C834.599 501.955 834.28 507.603 828.569 509.981C824.068 511.849 818.208 517.943 814.45 512.784C810.416 507.221 818.038 504.079 821.86 501.51C825.469 499.068 830.31 498.431 834.599 497.009L834.089 496.457Z" fill="#F4F4F4"/>
<path d="M150.094 263.42C148.523 266.181 147.376 268.176 146.23 270.172C144.531 268.941 142.578 267.922 141.198 266.414C140.094 265.183 139.563 263.378 138.926 261.786C136.909 256.542 131.601 252.338 133.873 245.82C134.043 245.353 135.784 244.822 136.209 245.14C142.833 249.917 147.865 255.905 150.094 263.42Z" fill="#F4F4F4"/>
<path d="M749.5 360.236C748.036 365.31 746.634 370.215 745.084 375.055C745.042 375.183 743.046 375.119 742.473 374.588C737.462 369.981 740.201 365.14 742.112 360.236C742.728 358.644 742.282 356.605 743.046 355.14C743.598 354.079 745.297 353.272 746.592 353.06C747.25 352.954 748.588 354.291 748.885 355.225C749.394 356.86 749.352 358.665 749.5 360.236Z" fill="#F4F4F4"/>
<path d="M587.335 380.49C594.979 380.363 599.926 384.142 604.172 389.089C604.745 389.769 604.788 391.34 604.427 392.253C604.214 392.762 602.558 393.187 601.794 392.911C596.423 390.958 591.072 388.919 585.807 386.669C585.106 386.372 584.427 384.524 584.724 383.781C585.276 382.444 586.55 381.425 587.335 380.49Z" fill="#F4F4F4"/>
<path d="M94.7657 183.059C94.1287 183.654 92.6425 185.055 91.1351 186.456C89.8825 184.97 88.5873 183.526 87.4196 181.976C87.1224 181.573 87.271 180.851 87.2073 180.257C86.8251 176.562 86.4642 172.847 86.082 169.153C87.2073 169.344 88.4812 169.237 89.4154 169.768C93.9377 172.38 95.6362 176.435 94.7657 183.059Z" fill="#F4F4F4"/>
<path d="M970.605 429.599C967.123 427.476 961.475 430.597 958.566 425.543C962.707 424.482 966.804 423.229 970.987 422.422C972.579 422.104 974.639 422.338 975.955 423.166C977.101 423.909 977.802 425.756 978.099 427.242C978.227 427.879 976.932 429.301 976.104 429.493C974.469 429.853 972.685 429.599 970.605 429.599Z" fill="#F4F4F4"/>
<path d="M123.345 229.259C127.846 230.618 131.179 237.178 129.226 241.297C128.886 241.998 127.315 242.656 126.445 242.486C122.538 241.764 118.801 234.184 120.585 230.596C120.967 229.875 122.411 229.683 123.345 229.259Z" fill="#F4F4F4"/>
<path d="M794.724 337.858C792.41 338.686 790.032 340.405 788.142 339.96C786.359 339.535 784.002 336.924 783.875 335.14C783.726 332.996 785.319 330.405 786.89 328.665C787.357 328.134 790.839 329.386 791.964 330.681C793.323 332.231 793.599 334.715 794.724 337.858Z" fill="#F4F4F4"/>
<path d="M1030.05 416.605C1026.83 419.471 1025 422.38 1023.22 422.338C1021.28 422.295 1018.46 419.896 1017.7 417.879C1016.57 414.928 1018.33 411.998 1021.94 412.465C1024.24 412.741 1026.32 414.609 1030.05 416.605Z" fill="#F4F4F4"/>
<path d="M786.382 491.361C787.507 495.671 788.781 497.816 788.42 499.684C787.337 505.523 782.709 504.121 778.781 503.612C777.698 503.463 776.7 502.678 775.66 502.189C778.781 499.068 781.86 495.947 786.382 491.361Z" fill="#F4F4F4"/>
<path d="M106.233 166.775C103.579 168.771 101.031 171.531 100.224 171.106C97.995 169.896 95.3623 167.476 95.1075 165.289C94.9377 163.76 98.4408 161.807 100.288 160.066C102.071 162.062 103.855 164.1 106.233 166.775Z" fill="#F4F4F4"/>
<path d="M204.556 336.881C200.565 337.454 198.144 338.579 196.531 337.857C194.238 336.838 192.539 334.46 190.586 332.655C192.645 332.125 194.981 330.723 196.701 331.254C199.036 331.976 200.926 334.163 204.556 336.881Z" fill="#F4F4F4"/>
<path d="M996.592 392.996C993.725 394.822 991.687 396.435 989.352 397.348C988.842 397.56 986.294 394.843 986.507 394.397C987.674 392.104 989.437 390.108 990.986 388.006C992.6 389.45 994.214 390.873 996.592 392.996Z" fill="#F4F4F4"/>
<path d="M1184.37 203.59C1181.46 205.416 1179.55 207.518 1178.19 207.221C1176.36 206.796 1174 204.694 1173.69 202.975C1173.43 201.595 1175.89 199.726 1177.15 198.07C1179.12 199.599 1181.12 201.106 1184.37 203.59Z" fill="#F4F4F4"/>
</svg>
