<svg width="26" height="28" viewBox="0 0 26 28" fill="none" xmlns="http://www.w3.org/2000/svg">
<path d="M1.66536 27.3334C1.31174 27.3334 0.972604 27.1929 0.722556 26.9429C0.472507 26.6928 0.332031 26.3537 0.332031 26.0001V2.00008C0.332031 1.64646 0.472507 1.30732 0.722556 1.05727C0.972604 0.807224 1.31174 0.666748 1.66536 0.666748H20.332C20.6857 0.666748 21.0248 0.807224 21.2748 1.05727C21.5249 1.30732 21.6654 1.64646 21.6654 2.00008V6.00008H18.9987V3.33341H2.9987V24.6667H18.9987V22.0001H21.6654V26.0001C21.6654 26.3537 21.5249 26.6928 21.2748 26.9429C21.0248 27.1929 20.6857 27.3334 20.332 27.3334H1.66536ZM18.9987 19.3334V15.3334H9.66536V12.6667H18.9987V8.66675L25.6654 14.0001L18.9987 19.3334Z" fill="#767676"/>
</svg>
