<svg width="28" height="28" viewBox="0 0 28 28" fill="none" xmlns="http://www.w3.org/2000/svg">
<path d="M23.3346 27.3334H4.66797C3.6071 27.3334 2.58969 26.912 1.83954 26.1618C1.0894 25.4117 0.667969 24.3943 0.667969 23.3334V2.00008C0.667969 1.64646 0.808444 1.30732 1.05849 1.05727C1.30854 0.807224 1.64768 0.666748 2.0013 0.666748H20.668C21.0216 0.666748 21.3607 0.807224 21.6108 1.05727C21.8608 1.30732 22.0013 1.64646 22.0013 2.00008V18.0001H27.3346V23.3334C27.3346 24.3943 26.9132 25.4117 26.1631 26.1618C25.4129 26.912 24.3955 27.3334 23.3346 27.3334ZM22.0013 20.6667V23.3334C22.0013 23.687 22.1418 24.0262 22.3918 24.2762C22.6419 24.5263 22.981 24.6667 23.3346 24.6667C23.6883 24.6667 24.0274 24.5263 24.2774 24.2762C24.5275 24.0262 24.668 23.687 24.668 23.3334V20.6667H22.0013ZM19.3346 24.6667V3.33341H3.33464V23.3334C3.33464 23.687 3.47511 24.0262 3.72516 24.2762C3.97521 24.5263 4.31435 24.6667 4.66797 24.6667H19.3346ZM6.0013 7.33341H16.668V10.0001H6.0013V7.33341ZM6.0013 12.6667H16.668V15.3334H6.0013V12.6667ZM6.0013 18.0001H12.668V20.6667H6.0013V18.0001Z" fill="#767676"/>
</svg>
