<svg width="33" height="33" viewBox="0 0 33 33" fill="none" xmlns="http://www.w3.org/2000/svg">
<circle cx="16.5" cy="16.5" r="16.5" fill="#0F0F0F"/>
<path d="M9.99654 16.7248C9.48336 16.994 9.50465 17.3884 10.0427 17.6013L11.6368 18.232C12.1753 18.4458 12.9901 18.3291 13.4465 17.9729L20.3689 12.5138C20.824 12.1558 20.8728 12.2086 20.4776 12.6317L15.0051 18.4892C14.6086 18.9111 14.7257 19.4291 15.2659 19.638L15.4526 19.7108C15.9929 19.9197 16.8733 20.2705 17.41 20.4888L19.178 21.2086C19.7151 21.4269 20.2891 21.1696 20.4417 20.6107L23.1362 10.7063C23.2884 10.1474 22.993 9.91013 22.4798 10.1789L9.99654 16.7248Z" fill="white"/>
<path d="M14.3709 23.209C14.3394 23.3035 15.4611 21.5847 15.4611 21.5847C15.7783 21.1004 15.5982 20.5224 15.0624 20.3033L13.8391 19.8026C13.3033 19.5834 13.0465 19.8407 13.2682 20.3761C13.2682 20.3761 14.4033 23.1119 14.3709 23.209Z" fill="white"/>
</svg>
