<svg width="600" height="633" viewBox="0 0 600 633" fill="none" xmlns="http://www.w3.org/2000/svg">
<g opacity="0.5">
<path d="M366.742 460.582L234.939 384.46L385.596 297.48L517.419 373.589L366.742 460.582Z" fill="#E0E0E0"/>
<path d="M7.58789 437.045L177.588 535.195L320.186 452.896L150.184 354.746L7.58789 437.045Z" fill="#E0E0E0"/>
<path d="M511.229 319.379C510.035 298.402 500.747 256.404 512.988 217.654C519.209 197.957 533.498 177.09 554.771 171.208C562.296 169.129 571.601 169.404 575.302 177.981C575.925 179.421 576.273 180.977 576.385 182.542C576.847 189.059 573.886 194.825 570.59 200.15C563.052 212.33 553.479 223.14 545.842 235.255C541.795 241.677 538.324 248.418 535.322 255.369" stroke="#27DEBF" stroke-width="0.00176" stroke-miterlimit="10"/>
<path d="M510.232 333.364C510.232 335.88 510.896 339.032 510.341 341.434C510.171 342.159 510.022 342.948 510.334 343.624C510.644 344.299 511.62 344.698 512.158 344.182C512.543 343.809 512.951 341.107 513.198 340.42C513.73 338.957 514.533 337.536 515.221 336.139C516.614 333.31 518.099 330.525 519.674 327.789C522.918 322.149 526.534 316.725 530.492 311.558C538.285 301.384 547.398 292.219 557.568 284.415C568.602 275.947 580.812 269.073 591.6 260.293C594.78 257.705 597.948 254.786 599.314 250.919C601.35 245.148 598.647 238.403 593.849 234.601C589.049 230.799 582.599 229.599 576.493 230.05C570.65 230.483 562.782 232.998 556.321 236.516C543.158 243.686 534.114 254.793 526.879 267.371C517.222 284.156 511.727 303.269 510.232 322.538V333.364V333.364Z" stroke="#27DEBF" stroke-width="0.00176" stroke-miterlimit="10"/>
<path d="M585.295 240.217C560.385 247.352 523.464 275.955 510.152 329.058" stroke="#27DEBF" stroke-width="0.00176" stroke-miterlimit="10" stroke-linecap="round" stroke-linejoin="round"/>
<path d="M559.76 182.95C546.311 193.652 514.203 227.551 510.152 282.35" stroke="#27DEBF" stroke-width="0.00176" stroke-miterlimit="10" stroke-linecap="round" stroke-linejoin="round"/>
<path d="M505.756 65.7253L408.427 9.61331C406.361 8.42126 404.49 8.30746 403.137 9.08991C401.879 9.81459 397.389 12.4175 396.127 13.1352C394.761 13.9106 393.914 15.5928 393.914 17.9909V284.346C393.914 289.116 397.266 294.918 401.399 297.303L498.725 353.416C500.79 354.608 502.662 354.722 504.015 353.94C505.273 353.213 509.795 350.612 511.058 349.875C512.405 349.089 513.238 347.416 513.238 345.039V78.6837C513.238 73.912 509.889 68.1111 505.756 65.7253Z" fill="#AEAFB3"/>
<path d="M414.609 288.935L407.59 292.987L407.592 315.139C407.592 316.331 408.428 317.782 409.463 318.379L412.738 320.271C413.771 320.868 415.446 320.868 416.479 320.271L419.755 318.379C420.788 317.782 421.942 316.387 422.334 315.259L428.648 297.039L414.609 288.935Z" fill="#AEAFB3"/>
<path d="M407.592 315.36C407.592 316.552 408.428 318.003 409.461 318.6L412.736 320.492C413.771 321.089 414.924 320.658 415.315 319.531L421.628 301.313L407.59 293.208L407.592 315.36Z" fill="#C7C7CC"/>
<path d="M484.695 329.96L477.676 334.012L477.678 356.164C477.678 357.358 478.516 358.807 479.549 359.404L482.826 361.296C483.857 361.893 485.533 361.895 486.565 361.298L489.841 359.406C490.876 358.809 492.029 357.412 492.42 356.285L498.734 338.064L484.695 329.96Z" fill="#AEAFB3"/>
<path d="M477.678 356.387C477.678 357.579 478.516 359.03 479.547 359.627L482.824 361.519C483.857 362.114 485.01 361.686 485.4 360.558L491.716 342.34L477.676 334.233L477.678 356.387Z" fill="#C7C7CC"/>
<path d="M401.394 13.8862L498.725 69.9981C502.858 72.384 506.206 78.1849 506.206 82.9566V349.312C506.206 351.697 505.368 353.373 504.015 354.155C502.66 354.936 500.79 354.824 498.725 353.63L401.395 297.518C397.266 295.132 393.918 289.331 393.918 284.56L393.914 18.2063C393.914 15.8082 394.76 14.126 396.127 13.3488C397.478 12.5821 399.34 12.6994 401.395 13.8862" fill="#C7C7CC"/>
<path d="M260.582 378.079L365.857 438.859L513.24 353.767L506.222 349.715L400.948 288.935L260.582 369.974V378.079Z" fill="#DFE0E4"/>
<path d="M364.854 439.394V431.291L512.237 346.199V354.302L364.854 439.394Z" fill="#AEAFB3"/>
<path d="M364.854 427.283C384.542 397.496 383.448 344.83 381.754 335.943C381.754 335.943 390.06 391.614 400.288 407.512" stroke="#FAFAFA" stroke-width="0.00148" stroke-miterlimit="10"/>
<path d="M385.367 355.601C388.747 371.831 427.15 383.287 427.15 383.287" stroke="#FAFAFA" stroke-width="0.00148" stroke-miterlimit="10"/>
<path d="M381.947 372.332C383.031 369.697 388.368 369.331 389.385 373.613C389.385 373.613 390.001 365.729 394.444 367.966" stroke="#FAFAFA" stroke-width="0.00148" stroke-miterlimit="10"/>
<path d="M380.24 383.652C382.216 379.416 389.502 377.09 392.7 387.13C392.7 387.13 393.183 369.162 405.068 374.562" stroke="#FAFAFA" stroke-width="0.00148" stroke-miterlimit="10"/>
<path d="M376.82 399.907C380.986 391.888 392.415 388.689 395.352 396.083C395.42 386.952 405.874 375.44 418.633 380.98" stroke="#FAFAFA" stroke-width="0.00148" stroke-miterlimit="10"/>
<path d="M369.982 419.149C374.873 410.262 386.867 394.224 397.328 400.687" stroke="#FAFAFA" stroke-width="0.00148" stroke-miterlimit="10"/>
<path d="M499.205 265.097L499.21 273.196L365.857 350.189L260.584 289.407L260.582 281.304L393.934 204.318L499.205 265.097Z" fill="#AEAFB3"/>
<path d="M499.205 265.097L365.858 342.083L260.582 281.304L393.934 204.318L499.205 265.097Z" fill="#DFE0E4"/>
<path d="M499.205 176.208L499.21 184.309L365.857 261.3L260.584 200.52L260.582 192.417L393.934 115.43L499.205 176.208Z" fill="#AEAFB3"/>
<path d="M499.205 176.208L365.858 253.196L260.582 192.417L393.934 115.43L499.205 176.208Z" fill="#DFE0E4"/>
<path d="M365.584 146.922L268.255 90.8101C266.19 89.6163 264.318 89.5043 262.965 90.2867C261.708 91.0114 257.217 93.6143 255.955 94.332C254.588 95.1074 253.742 96.7896 253.742 99.1877L253.744 365.543C253.744 370.313 257.094 376.115 261.225 378.499L358.553 434.613C360.619 435.805 362.49 435.919 363.843 435.137C365.101 434.41 369.621 431.809 370.887 431.072C372.233 430.286 373.066 428.614 373.066 426.236V159.881C373.066 155.109 369.717 149.308 365.584 146.922Z" fill="#AEAFB3"/>
<g opacity="0.2">
<path opacity="0.2" d="M364.876 188.253L371.908 184.201V159.875L364.855 163.933L364.876 188.253Z" fill="#CBCED4"/>
</g>
<g opacity="0.2">
<path opacity="0.2" d="M505.048 107.055L512.082 103.003V78.6768L505.027 82.7343L505.048 107.055Z" fill="#CBCED4"/>
</g>
<path d="M274.435 370.131L267.418 374.183V396.335C267.418 397.527 268.256 398.978 269.289 399.575L272.566 401.467C273.597 402.064 275.272 402.064 276.305 401.467L279.583 399.575C280.616 398.978 281.77 397.583 282.162 396.456L288.474 378.235L274.435 370.131Z" fill="#AEAFB3"/>
<path d="M267.42 396.557C267.42 397.749 268.258 399.2 269.289 399.797L272.566 401.689C273.599 402.286 274.752 401.856 275.144 400.728L281.458 382.51L267.418 374.405L267.42 396.557Z" fill="#C7C7CC"/>
<path d="M344.521 410.303L337.504 414.355L337.506 436.507C337.506 437.701 338.342 439.15 339.375 439.747L342.652 441.639C343.685 442.236 345.36 442.238 346.393 441.641L349.669 439.749C350.702 439.152 351.856 437.755 352.248 436.627L358.562 418.407L344.521 410.303Z" fill="#AEAFB3"/>
<path d="M337.506 436.73C337.506 437.924 338.344 439.373 339.375 439.97L342.652 441.862C343.685 442.459 344.838 442.027 345.23 440.903L351.542 422.682L337.504 414.576L337.506 436.728V436.73Z" fill="#C7C7CC"/>
<path d="M261.225 95.0821L358.553 151.194C362.686 153.58 366.034 159.381 366.034 164.153V430.508C366.034 432.893 366.036 439.227 366.036 439.227C366.036 439.227 360.62 436.02 358.553 434.826L261.225 378.714C257.094 376.328 253.744 370.527 253.744 365.755L253.742 99.4022C253.742 97.0041 254.588 95.3219 255.955 94.5465C257.308 93.7781 259.169 93.8953 261.224 95.0821" fill="#C7C7CC"/>
<g opacity="0.2">
<path opacity="0.2" d="M358.555 151.195L261.224 95.0831C259.17 93.8963 257.308 93.779 255.957 94.5475C254.59 95.3229 253.744 97.0051 253.744 99.4032V123.179L366.036 188.012V164.154C366.036 159.382 362.686 153.581 358.555 151.195Z" fill="#CBCED4"/>
</g>
<path d="M414.428 139.49L491.629 94.917L491.631 175.957" stroke="#FAFAFA" stroke-width="0.00148" stroke-miterlimit="10" stroke-linecap="round" stroke-linejoin="round"/>
<path d="M478.039 155.699L492.075 94.917L464 143.542" stroke="#FAFAFA" stroke-width="0.00148" stroke-miterlimit="10" stroke-linecap="round" stroke-linejoin="round"/>
<path d="M492.434 94.917L450.324 135.438" stroke="#FAFAFA" stroke-width="0.00148" stroke-miterlimit="10" stroke-linecap="round" stroke-linejoin="round"/>
<path d="M492.094 162.65C492.112 151.286 479.134 150.657 479.134 150.657C479.929 147.216 479.066 141.688 474.881 138.112C470.695 134.536 467.867 136.5 467.023 137.963C467.023 137.963 467.902 127.52 458.871 126.508C458.871 126.508 464.856 115.463 458.871 113.72" stroke="#FAFAFA" stroke-width="0.00148" stroke-miterlimit="10" stroke-linecap="round" stroke-linejoin="round"/>
<path d="M491.09 145.686C490.631 139.872 486.185 132.478 481.62 136.041C481.62 136.041 482.824 123.357 473.778 125.02C473.778 125.02 478.019 113.253 469.127 116.168C469.127 116.168 475.534 108.067 470.566 106.882" stroke="#FAFAFA" stroke-width="0.00148" stroke-miterlimit="10" stroke-linecap="round" stroke-linejoin="round"/>
<path d="M529.448 66.3981C529.462 64.835 528.44 63.2736 526.371 62.0781L422.022 1.83333C417.891 -0.552515 411.19 -0.552515 407.059 1.83333L246.565 94.4944C244.496 95.6882 243.474 97.2513 243.486 98.8145C243.499 100.262 243.499 105.468 243.486 106.917C243.474 108.48 244.496 110.043 246.565 111.237L350.914 171.482C355.047 173.868 361.746 173.868 365.877 171.482L526.371 78.821C528.44 77.6272 529.462 76.064 529.448 74.5026C529.436 73.0533 529.436 67.8475 529.448 66.3981Z" fill="#C7C7CC"/>
<path d="M350.935 163.378L246.586 103.133C242.453 100.747 242.453 96.8789 246.586 94.493L407.08 1.83201C411.211 -0.552078 417.91 -0.552078 422.043 1.83201L526.391 62.0785C530.522 64.4643 530.522 68.3328 526.391 70.7169L365.897 163.378C361.765 165.764 355.066 165.764 350.935 163.378Z" fill="#DFE0E4"/>
<g opacity="0.1">
<path opacity="0.1" d="M505.04 90.6436L455.915 151.424L371.704 200.054L371.691 167.631L505.04 90.6436Z" fill="#CBCED4"/>
</g>
<g opacity="0.1">
<path opacity="0.1" d="M498.015 183.805L455.903 240.538L371.693 289.167L371.691 256.738L498.015 183.805Z" fill="#CBCED4"/>
</g>
<g opacity="0.1">
<path opacity="0.1" d="M498.013 272.694L455.901 329.426L371.691 378.056V345.624L498.013 272.694Z" fill="#CBCED4"/>
</g>
<path d="M306.03 449.99L176.914 524.532L31.5195 440.401L160.635 365.858L306.03 449.99Z" fill="#E8E9EE"/>
<g opacity="0.5">
<path opacity="0.5" d="M306.028 449.99L176.912 524.532L31.5176 440.401L160.633 365.858L306.028 449.99Z" fill="black"/>
</g>
<path d="M160.637 264.149L160.635 365.195L31.5195 439.739L31.5213 338.692L160.637 264.149Z" fill="#E8E9EE"/>
<g opacity="0.23">
<path opacity="0.23" d="M160.635 264.148L160.633 365.194L31.5176 439.738L31.5193 338.691L160.635 264.148Z" fill="black"/>
</g>
<path d="M176.914 423.488V524.541L31.5195 440.41L31.5213 339.364L176.914 423.488Z" fill="#E8E9EE"/>
<g opacity="0.38">
<path opacity="0.38" d="M176.912 423.486V524.539L31.5176 440.408L31.5193 339.362L176.912 423.486Z" fill="black"/>
</g>
<path d="M305.121 348.274V449.326L159.727 365.195L159.728 264.149L305.121 348.274Z" fill="#E8E9EE"/>
<g opacity="0.4">
<path opacity="0.4" d="M305.119 348.273V449.325L159.725 365.194L159.726 264.148L305.119 348.273Z" fill="black"/>
</g>
<path d="M305.934 449.816V348.764L176.818 423.306V524.359L305.934 449.816Z" fill="#E8E9EE"/>
<g opacity="0.23">
<path opacity="0.23" d="M305.934 449.816V348.764L176.818 423.306V524.359L305.934 449.816Z" fill="black"/>
</g>
<path d="M159.727 264.538L159.907 208.594L304.943 292.826L305.119 348.662L159.727 264.538Z" fill="#E8E9EE"/>
<g opacity="0.2">
<path opacity="0.2" d="M159.725 264.537L159.905 208.593L304.941 292.826L305.117 348.661L159.725 264.537Z" fill="black"/>
</g>
<path d="M176.818 422.854L188.926 373.915L316.872 300.047L305.934 348.312L176.818 422.854Z" fill="#E8E9EE"/>
<g opacity="0.3">
<path opacity="0.3" d="M176.818 422.854L188.926 373.915L316.872 300.047L305.934 348.312L176.818 422.854Z" fill="black"/>
</g>
<path d="M31.5349 339.024L16.1328 288.265L145.247 213.723L160.652 264.482L31.5349 339.024Z" fill="#E8E9EE"/>
<g opacity="0.1">
<path opacity="0.1" d="M31.5349 339.024L16.1328 288.265L145.247 213.723L160.652 264.482L31.5349 339.024Z" fill="black"/>
</g>
<path d="M31.1288 339.434L0.75 297.483L146.159 381.606L176.522 423.558L31.1288 339.434Z" fill="#E8E9EE"/>
<g opacity="0.45">
<path opacity="0.45" d="M31.1288 339.434L0.75 297.483L146.159 381.606L176.522 423.558L31.1288 339.434Z" fill="black"/>
</g>
<g opacity="0.7">
<path d="M213.51 494.629C213.07 494.629 212.715 494.272 212.715 493.836V476.055C212.715 475.618 213.07 475.261 213.51 475.261C213.947 475.261 214.302 475.618 214.302 476.055V493.836C214.302 494.272 213.947 494.629 213.51 494.629Z" fill="#A2ACB1"/>
<path d="M211.799 482.038C211.694 482.038 211.587 482.015 211.484 481.973C211.082 481.8 210.898 481.331 211.071 480.928L213.896 474.404L217.047 478.042C217.332 478.374 217.297 478.877 216.965 479.164C216.636 479.444 216.133 479.416 215.846 479.085L214.35 477.354L212.529 481.56C212.398 481.858 212.107 482.038 211.799 482.038Z" fill="#A2ACB1"/>
<path d="M221.205 491.728C220.767 491.728 220.412 491.371 220.412 490.934V473.156C220.412 472.719 220.767 472.363 221.205 472.363C221.644 472.363 222 472.719 222 473.156V490.934C222 491.371 221.644 491.728 221.205 491.728Z" fill="#A2ACB1"/>
<path d="M218.637 477.76C218.532 477.76 218.425 477.739 218.322 477.696C217.919 477.52 217.736 477.053 217.909 476.65L220.732 470.132L223.881 473.764C224.169 474.097 224.134 474.599 223.801 474.884C223.468 475.171 222.971 475.135 222.682 474.807L221.186 473.076L219.367 477.282C219.236 477.58 218.943 477.76 218.637 477.76Z" fill="#A2ACB1"/>
</g>
<g opacity="0.7">
<path d="M194.02 506.723C193.71 506.723 193.416 506.649 193.154 506.5C192.55 506.156 192.203 505.461 192.203 504.594V502.417C192.203 501.981 192.558 501.624 192.998 501.624C193.437 501.624 193.791 501.981 193.791 502.417V504.594C193.791 504.918 193.88 505.086 193.941 505.119C193.999 505.163 194.186 505.146 194.459 504.983C195.16 504.575 195.935 503.003 195.935 501.398V492.296C195.935 491.858 196.29 491.501 196.73 491.501C197.167 491.501 197.523 491.858 197.523 492.296V501.398C197.523 503.469 196.553 505.597 195.265 506.353C194.848 506.598 194.421 506.723 194.02 506.723Z" fill="#A2ACB1"/>
<path d="M200.263 480.269C199.068 480.269 197.72 480.684 196.307 481.499C191.551 484.242 187.613 490.637 187.026 496.287L204.862 485.991C204.769 483.507 203.908 481.68 202.411 480.815C201.777 480.451 201.054 480.269 200.263 480.269ZM185.365 499.077V497.705C185.365 491.242 189.916 483.353 195.512 480.123C198.374 478.475 201.109 478.228 203.204 479.441C205.301 480.652 206.456 483.14 206.456 486.443V486.903L185.365 499.077Z" fill="#A2ACB1"/>
</g>
<g opacity="0.7">
<path opacity="0.7" d="M0.75 297.483L146.157 381.606L176.522 423.558L144.541 383.085L0.75 297.483Z" fill="white"/>
</g>
<g opacity="0.7">
<path opacity="0.7" d="M305.934 348.764L176.818 423.306V524.36L179.227 425.338L305.934 348.764Z" fill="white"/>
</g>
<path d="M117.014 308.08C130.335 306.153 142.504 297.62 150.226 286.784C153.82 281.741 156.553 276.093 158.103 270.087C159.525 264.577 160.321 258.389 158.914 252.791C156.507 243.197 147.615 237.504 138.211 236.304C133.471 235.698 128.565 236.137 124.042 237.699C119.223 239.365 115.288 242.395 112.319 246.533C110.777 248.683 109.159 251.354 109.088 254.083C109.026 256.458 110.726 258.158 113.005 258.545C115.757 259.014 118.661 257.837 121.015 256.516C123.919 254.883 126.41 252.749 128.486 250.148C132.727 244.833 136.342 238.339 138.189 231.763C139.783 226.081 139.44 219.876 138.224 214.159C136.981 208.316 134.558 202.347 130.282 198.055C125.808 193.563 119.414 191.342 113.245 190.535C106.987 189.716 100.407 190.281 94.4348 192.347C91.8634 193.236 89.208 194.423 87.2125 196.292C85.7107 197.699 83.9935 200.015 84.6079 202.282C85.2888 204.806 88.5429 205.564 90.7992 205.274C94.0952 204.85 97.2355 202.8 99.5706 200.526C102.14 198.02 104.454 194.958 106.163 191.799C107.425 189.467 108.197 186.875 108.144 184.207C107.917 173.097 95.6531 165.919 86.0362 163.893C83.4263 163.344 80.7937 163.172 78.1383 163.373C77.2456 163.442 77.7899 164.84 78.5129 164.786C83.5629 164.404 88.7617 165.922 93.2428 168.157C97.5891 170.328 101.725 173.536 104.115 177.844C106.52 182.18 106.242 187.167 103.705 191.387C101.97 194.276 99.8664 197.208 97.3651 199.48C95.2803 201.375 92.1488 203.556 89.18 203.343C88.3101 203.278 87.2038 202.865 86.873 201.895C86.4826 200.75 87.3526 199.418 87.9162 198.716C89.3341 196.957 91.5028 195.895 93.5666 194.978C98.6954 192.702 104.612 191.962 110.175 192.252C115.906 192.553 121.869 194.029 126.529 197.517C130.905 200.798 133.48 205.877 135.036 211.012C136.645 216.321 137.32 222.129 136.57 227.646C135.806 233.263 133.13 238.644 130.222 243.438C126.982 248.782 122.916 253.88 116.826 256.041C115.321 256.575 112.17 257.368 111.568 255.171C110.975 253.01 112.688 250.3 113.802 248.602C116.328 244.742 119.709 241.756 123.986 240.006C127.994 238.364 132.439 237.749 136.75 238.075C144.994 238.696 153.365 243.004 156.236 251.194C157.918 255.992 157.575 261.324 156.679 266.252C155.686 271.696 153.659 276.942 150.885 281.724C144.933 291.978 135.637 299.68 124.822 304.38C122.23 305.507 119.538 306.443 116.856 307.331C116.574 307.424 116.699 308.126 117.014 308.08Z" fill="#E0E0E0"/>
<path d="M60.8423 156.428C53.7478 155.929 44.1939 161.434 47.6248 165.464C51.0556 169.492 60.1667 162.975 60.1667 162.975C60.1667 162.975 59.3089 171.116 62.2882 172.037C65.2692 172.956 69.2112 165.201 66.3089 160.235C66.3089 160.235 70.7848 162.222 75.0121 159.104C79.2394 155.989 74.7548 153.057 68.7876 153.578C68.7876 153.578 73.0586 139.619 64.4307 142.257C60.1667 143.561 58.635 148.626 60.8423 156.428Z" fill="#27DEBF"/>
<g opacity="0.65">
<path d="M60.8423 156.428C53.7478 155.929 44.1939 161.434 47.6248 165.464C51.0556 169.492 60.1667 162.975 60.1667 162.975C60.1667 162.975 59.3089 171.116 62.2882 172.037C65.2692 172.956 69.2112 165.201 66.3089 160.235C66.3089 160.235 70.7848 162.222 75.0121 159.104C79.2394 155.989 74.7548 153.057 68.7876 153.578C68.7876 153.578 73.0586 139.619 64.4307 142.257C60.1667 143.561 58.635 148.626 60.8423 156.428Z" fill="white"/>
</g>
<path d="M67.6699 159.24C67.2901 158.858 66.8717 158.505 66.4463 158.175C65.8319 157.703 65.193 157.255 64.5681 156.796C63.9712 156.358 63.3411 155.973 62.6917 155.622C62.3153 155.417 61.932 155.226 61.5399 155.053C60.9325 154.79 60.4091 154.69 59.7457 154.776C59.1278 154.855 58.5799 155.557 59.0402 156.143C59.5916 156.843 60.2673 156.978 60.8799 157.293C61.1985 157.458 61.5136 157.633 61.8252 157.815C62.4658 158.191 63.054 158.631 63.6544 159.07C64.2495 159.508 64.8674 159.921 65.4556 160.371C66.3851 161.079 67.3303 161.787 68.4453 162.184C68.5451 162.217 68.6746 162.201 68.7517 162.124C69.4903 161.416 68.1845 159.758 67.6699 159.238" fill="#455A64"/>
</g>
<path d="M178.248 593.486V596.834H171.588V618.506H167.484V596.834H160.788V593.486H178.248ZM184.893 596.042C184.149 596.042 183.525 595.79 183.021 595.286C182.517 594.782 182.265 594.158 182.265 593.414C182.265 592.67 182.517 592.046 183.021 591.542C183.525 591.038 184.149 590.786 184.893 590.786C185.613 590.786 186.225 591.038 186.729 591.542C187.233 592.046 187.485 592.67 187.485 593.414C187.485 594.158 187.233 594.782 186.729 595.286C186.225 595.79 185.613 596.042 184.893 596.042ZM186.909 598.67V618.506H182.805V598.67H186.909ZM191.329 608.498C191.329 606.506 191.737 604.742 192.553 603.206C193.393 601.67 194.521 600.482 195.937 599.642C197.377 598.778 198.973 598.346 200.725 598.346C202.021 598.346 203.293 598.634 204.541 599.21C205.813 599.762 206.821 600.506 207.565 601.442V591.866H211.705V618.506H207.565V615.518C206.893 616.478 205.957 617.27 204.757 617.894C203.581 618.518 202.225 618.83 200.689 618.83C198.961 618.83 197.377 618.398 195.937 617.534C194.521 616.646 193.393 615.422 192.553 613.862C191.737 612.278 191.329 610.49 191.329 608.498ZM207.565 608.57C207.565 607.202 207.277 606.014 206.701 605.006C206.149 603.998 205.417 603.23 204.505 602.702C203.593 602.174 202.609 601.91 201.553 601.91C200.497 601.91 199.513 602.174 198.601 602.702C197.689 603.206 196.945 603.962 196.369 604.97C195.817 605.954 195.541 607.13 195.541 608.498C195.541 609.866 195.817 611.066 196.369 612.098C196.945 613.13 197.689 613.922 198.601 614.474C199.537 615.002 200.521 615.266 201.553 615.266C202.609 615.266 203.593 615.002 204.505 614.474C205.417 613.946 206.149 613.178 206.701 612.17C207.277 611.138 207.565 609.938 207.565 608.57ZM216.127 608.498C216.127 606.506 216.535 604.742 217.351 603.206C218.191 601.67 219.319 600.482 220.735 599.642C222.175 598.778 223.759 598.346 225.487 598.346C227.047 598.346 228.403 598.658 229.555 599.282C230.731 599.882 231.667 600.638 232.363 601.55V598.67H236.503V618.506H232.363V615.554C231.667 616.49 230.719 617.27 229.519 617.894C228.319 618.518 226.951 618.83 225.415 618.83C223.711 618.83 222.151 618.398 220.735 617.534C219.319 616.646 218.191 615.422 217.351 613.862C216.535 612.278 216.127 610.49 216.127 608.498ZM232.363 608.57C232.363 607.202 232.075 606.014 231.499 605.006C230.947 603.998 230.215 603.23 229.303 602.702C228.391 602.174 227.407 601.91 226.351 601.91C225.295 601.91 224.311 602.174 223.399 602.702C222.487 603.206 221.743 603.962 221.167 604.97C220.615 605.954 220.339 607.13 220.339 608.498C220.339 609.866 220.615 611.066 221.167 612.098C221.743 613.13 222.487 613.922 223.399 614.474C224.335 615.002 225.319 615.266 226.351 615.266C227.407 615.266 228.391 615.002 229.303 614.474C230.215 613.946 230.947 613.178 231.499 612.17C232.075 611.138 232.363 609.938 232.363 608.57ZM250.142 608.606L259.286 618.506H253.742L246.398 609.974V618.506H242.294V591.866H246.398V607.346L253.598 598.67H259.286L250.142 608.606ZM271.011 608.498C271.011 606.506 271.419 604.742 272.235 603.206C273.075 601.67 274.203 600.482 275.619 599.642C277.059 598.778 278.643 598.346 280.371 598.346C281.931 598.346 283.287 598.658 284.439 599.282C285.615 599.882 286.551 600.638 287.247 601.55V598.67H291.387V618.506H287.247V615.554C286.551 616.49 285.603 617.27 284.403 617.894C283.203 618.518 281.835 618.83 280.299 618.83C278.595 618.83 277.035 618.398 275.619 617.534C274.203 616.646 273.075 615.422 272.235 613.862C271.419 612.278 271.011 610.49 271.011 608.498ZM287.247 608.57C287.247 607.202 286.959 606.014 286.383 605.006C285.831 603.998 285.099 603.23 284.187 602.702C283.275 602.174 282.291 601.91 281.235 601.91C280.179 601.91 279.195 602.174 278.283 602.702C277.371 603.206 276.627 603.962 276.051 604.97C275.499 605.954 275.223 607.13 275.223 608.498C275.223 609.866 275.499 611.066 276.051 612.098C276.627 613.13 277.371 613.922 278.283 614.474C279.219 615.002 280.203 615.266 281.235 615.266C282.291 615.266 283.275 615.002 284.187 614.474C285.099 613.946 285.831 613.178 286.383 612.17C286.959 611.138 287.247 609.938 287.247 608.57ZM295.809 608.498C295.809 606.506 296.217 604.742 297.033 603.206C297.873 601.67 299.001 600.482 300.417 599.642C301.857 598.778 303.453 598.346 305.205 598.346C306.501 598.346 307.773 598.634 309.021 599.21C310.293 599.762 311.301 600.506 312.045 601.442V591.866H316.185V618.506H312.045V615.518C311.373 616.478 310.437 617.27 309.237 617.894C308.061 618.518 306.705 618.83 305.169 618.83C303.441 618.83 301.857 618.398 300.417 617.534C299.001 616.646 297.873 615.422 297.033 613.862C296.217 612.278 295.809 610.49 295.809 608.498ZM312.045 608.57C312.045 607.202 311.757 606.014 311.181 605.006C310.629 603.998 309.897 603.23 308.985 602.702C308.073 602.174 307.089 601.91 306.033 601.91C304.977 601.91 303.993 602.174 303.081 602.702C302.169 603.206 301.425 603.962 300.849 604.97C300.297 605.954 300.021 607.13 300.021 608.498C300.021 609.866 300.297 611.066 300.849 612.098C301.425 613.13 302.169 613.922 303.081 614.474C304.017 615.002 305.001 615.266 306.033 615.266C307.089 615.266 308.073 615.002 308.985 614.474C309.897 613.946 310.629 613.178 311.181 612.17C311.757 611.138 312.045 609.938 312.045 608.57ZM320.608 608.498C320.608 606.506 321.016 604.742 321.832 603.206C322.672 601.67 323.8 600.482 325.216 599.642C326.656 598.778 328.24 598.346 329.968 598.346C331.528 598.346 332.884 598.658 334.036 599.282C335.212 599.882 336.148 600.638 336.844 601.55V598.67H340.984V618.506H336.844V615.554C336.148 616.49 335.2 617.27 334 617.894C332.8 618.518 331.432 618.83 329.896 618.83C328.192 618.83 326.632 618.398 325.216 617.534C323.8 616.646 322.672 615.422 321.832 613.862C321.016 612.278 320.608 610.49 320.608 608.498ZM336.844 608.57C336.844 607.202 336.556 606.014 335.98 605.006C335.428 603.998 334.696 603.23 333.784 602.702C332.872 602.174 331.888 601.91 330.832 601.91C329.776 601.91 328.792 602.174 327.88 602.702C326.968 603.206 326.224 603.962 325.648 604.97C325.096 605.954 324.82 607.13 324.82 608.498C324.82 609.866 325.096 611.066 325.648 612.098C326.224 613.13 326.968 613.922 327.88 614.474C328.816 615.002 329.8 615.266 330.832 615.266C331.888 615.266 332.872 615.002 333.784 614.474C334.696 613.946 335.428 613.178 335.98 612.17C336.556 611.138 336.844 609.938 336.844 608.57ZM355.158 608.498C355.158 606.506 355.566 604.742 356.382 603.206C357.222 601.67 358.35 600.482 359.766 599.642C361.206 598.778 362.802 598.346 364.554 598.346C365.85 598.346 367.122 598.634 368.37 599.21C369.642 599.762 370.65 600.506 371.394 601.442V591.866H375.534V618.506H371.394V615.518C370.722 616.478 369.786 617.27 368.586 617.894C367.41 618.518 366.054 618.83 364.518 618.83C362.79 618.83 361.206 618.398 359.766 617.534C358.35 616.646 357.222 615.422 356.382 613.862C355.566 612.278 355.158 610.49 355.158 608.498ZM371.394 608.57C371.394 607.202 371.106 606.014 370.53 605.006C369.978 603.998 369.246 603.23 368.334 602.702C367.422 602.174 366.438 601.91 365.382 601.91C364.326 601.91 363.342 602.174 362.43 602.702C361.518 603.206 360.774 603.962 360.198 604.97C359.646 605.954 359.37 607.13 359.37 608.498C359.37 609.866 359.646 611.066 360.198 612.098C360.774 613.13 361.518 613.922 362.43 614.474C363.366 615.002 364.35 615.266 365.382 615.266C366.438 615.266 367.422 615.002 368.334 614.474C369.246 613.946 369.978 613.178 370.53 612.17C371.106 611.138 371.394 609.938 371.394 608.57ZM379.956 608.498C379.956 606.506 380.364 604.742 381.18 603.206C382.02 601.67 383.148 600.482 384.564 599.642C386.004 598.778 387.588 598.346 389.316 598.346C390.876 598.346 392.232 598.658 393.384 599.282C394.56 599.882 395.496 600.638 396.192 601.55V598.67H400.332V618.506H396.192V615.554C395.496 616.49 394.548 617.27 393.348 617.894C392.148 618.518 390.78 618.83 389.244 618.83C387.54 618.83 385.98 618.398 384.564 617.534C383.148 616.646 382.02 615.422 381.18 613.862C380.364 612.278 379.956 610.49 379.956 608.498ZM396.192 608.57C396.192 607.202 395.904 606.014 395.328 605.006C394.776 603.998 394.044 603.23 393.132 602.702C392.22 602.174 391.236 601.91 390.18 601.91C389.124 601.91 388.14 602.174 387.228 602.702C386.316 603.206 385.572 603.962 384.996 604.97C384.444 605.954 384.168 607.13 384.168 608.498C384.168 609.866 384.444 611.066 384.996 612.098C385.572 613.13 386.316 613.922 387.228 614.474C388.164 615.002 389.148 615.266 390.18 615.266C391.236 615.266 392.22 615.002 393.132 614.474C394.044 613.946 394.776 613.178 395.328 612.17C395.904 611.138 396.192 609.938 396.192 608.57ZM410.911 602.018V612.998C410.911 613.742 411.079 614.282 411.415 614.618C411.775 614.93 412.375 615.086 413.215 615.086H415.735V618.506H412.495C410.647 618.506 409.231 618.074 408.247 617.21C407.263 616.346 406.771 614.942 406.771 612.998V602.018H404.431V598.67H406.771V593.738H410.911V598.67H415.735V602.018H410.911ZM418.549 608.498C418.549 606.506 418.957 604.742 419.773 603.206C420.613 601.67 421.741 600.482 423.157 599.642C424.597 598.778 426.181 598.346 427.909 598.346C429.469 598.346 430.825 598.658 431.977 599.282C433.153 599.882 434.089 600.638 434.785 601.55V598.67H438.925V618.506H434.785V615.554C434.089 616.49 433.141 617.27 431.941 617.894C430.741 618.518 429.373 618.83 427.837 618.83C426.133 618.83 424.573 618.398 423.157 617.534C421.741 616.646 420.613 615.422 419.773 613.862C418.957 612.278 418.549 610.49 418.549 608.498ZM434.785 608.57C434.785 607.202 434.497 606.014 433.921 605.006C433.369 603.998 432.637 603.23 431.725 602.702C430.813 602.174 429.829 601.91 428.773 601.91C427.717 601.91 426.733 602.174 425.821 602.702C424.909 603.206 424.165 603.962 423.589 604.97C423.037 605.954 422.761 607.13 422.761 608.498C422.761 609.866 423.037 611.066 423.589 612.098C424.165 613.13 424.909 613.922 425.821 614.474C426.757 615.002 427.741 615.266 428.773 615.266C429.829 615.266 430.813 615.002 431.725 614.474C432.637 613.946 433.369 613.178 433.921 612.17C434.497 611.138 434.785 609.938 434.785 608.57Z" fill="#C8C8C8"/>
</svg>
